<svg width="100" height="100" viewBox="0 0 100 100" fill="none" xmlns="http://www.w3.org/2000/svg">
<g clip-path="url(#clip0_295_5920)">
<path d="M26.878 27.058L20.4526 20.6327V66.9675L20.5431 69.1395C20.5431 70.1349 20.7241 71.3114 21.0861 72.4879L71.9458 90.4064L84.6155 84.7955L26.878 27.058Z" fill="#00C4B3"/>
<path d="M84.6152 84.7955L71.9455 90.4064L21.1763 72.4878C22.1717 76.1982 24.2532 80.3611 26.6061 82.7141L43.1672 99.1847L80.0903 99.2752L84.6152 84.7955Z" fill="#22D3C5"/>
<path d="M20.6335 20.6327L0.905039 50.4969C-0.723921 52.2164 0.090559 55.8363 2.71499 58.5512L14.1177 70.0444L21.267 72.5784C20.9955 71.4019 20.724 70.2254 20.724 69.2299L20.6335 67.058V20.6327Z" fill="#0075C9"/>
<path d="M72.3078 21.1756C71.1314 20.9041 69.9549 20.7231 68.9594 20.6326L66.697 20.5421H20.4526L84.6155 84.705L90.2264 72.0353L72.3078 21.1756Z" fill="#0075C9"/>
<path d="M82.534 26.6055C80.1811 24.2526 76.1087 22.0806 72.3078 21.1756L90.2264 72.0353L84.6155 84.705L98.3712 80.2706V42.5331L82.534 26.6055Z" fill="#00A8E1"/>
<path d="M69.7738 14.1168L58.2806 2.71408C55.6562 0.0896435 52.0363 -0.724836 50.2263 0.904123L20.3621 20.6326H66.6064L68.8689 20.7231C69.8643 20.7231 71.0408 20.9041 72.2173 21.2661L69.7738 14.1168Z" fill="#00C4B3"/>
</g>
<defs>
<clipPath id="clip0_295_5920">
<rect width="100" height="100" fill="white" transform="translate(0 -0.000854492)"/>
</clipPath>
</defs>
</svg>
