<svg width="100" height="100" viewBox="0 0 100 100" fill="none" xmlns="http://www.w3.org/2000/svg">
<path d="M50 0C77.6143 0 100 22.3857 100 50C100 77.6143 77.6143 100 50 100C22.3857 100 0 77.6143 0 50C0 22.3857 22.3857 0 50 0Z" fill="black"/>
<path d="M48.8785 74.4647C47.5962 74.119 46.2772 74.8613 45.9018 76.127L45.8852 76.186L42.5648 88.4907L42.5498 88.55C42.2372 89.8327 43.0038 91.138 44.2862 91.4837C45.5682 91.83 46.8872 91.0877 47.2625 89.8217L47.2792 89.763L50.5992 77.4583L50.6145 77.3987C50.6372 77.3063 50.6542 77.2133 50.6658 77.1207L50.6755 77.028L50.5968 76.6293L50.4818 76.0553L50.4092 75.697C50.2535 75.3967 50.0372 75.132 49.7735 74.9197C49.5102 74.7077 49.2052 74.5527 48.8785 74.4647ZM25.7415 61.793C25.681 61.9137 25.6296 62.041 25.5888 62.174L25.5657 62.2543L22.2454 74.559L22.2302 74.6187C21.9177 75.9013 22.6843 77.2063 23.9665 77.5523C25.2485 77.8983 26.5677 77.1563 26.9431 75.8903L26.9595 75.8313L29.97 64.6743C28.3933 63.8393 26.978 62.876 25.7415 61.793ZM17.8237 47.643C16.5415 47.297 15.2224 48.039 14.8472 49.305L14.8306 49.364L11.5103 61.6687L11.495 61.728C11.1825 63.0107 11.9491 64.3157 13.2314 64.6617C14.5134 65.0077 15.8325 64.2657 16.2079 62.9997L16.2243 62.9407L19.5446 50.636L19.5599 50.5767C19.8724 49.294 19.106 47.989 17.8237 47.643ZM92.2735 44.8487C90.9912 44.5027 89.6718 45.2447 89.2968 46.5107L89.2802 46.5697L85.9598 58.8743L85.9445 58.9337C85.6322 60.2163 86.3988 61.5213 87.6808 61.8673C88.9632 62.2133 90.2822 61.4713 90.6575 60.2053L90.6738 60.1463L93.9942 47.8417L94.0095 47.7823C94.3218 46.4997 93.5555 45.1947 92.2735 44.8487ZM10.5929 28.4176C7.81219 33.4813 6.04159 39.0373 5.37939 44.7763C5.69616 45.1373 6.11286 45.3967 6.57686 45.521C7.85909 45.8673 9.17823 45.125 9.55343 43.859L9.57003 43.8003L12.8903 31.4955L12.9056 31.4361C13.2181 30.1533 12.4515 28.8482 11.1692 28.5023C10.9812 28.4516 10.7876 28.4231 10.5929 28.4176ZM83.8635 28.5023C82.5815 28.1562 81.2622 28.8984 80.8868 30.1644L80.8705 30.2232L77.5502 42.528L77.5348 42.5873C77.2225 43.87 77.9888 45.1753 79.2712 45.521C80.5532 45.8673 81.8725 45.125 82.2478 43.859L82.2642 43.8003L85.5845 31.4955L85.5998 31.4361C85.9122 30.1533 85.1455 28.8482 83.8635 28.5023Z" fill="white"/>
<path d="M25.0428 16.8022C23.7607 16.4561 22.4416 17.1983 22.0662 18.4643L22.0498 18.5231L18.7295 30.8278L18.7142 30.8872C18.4017 32.17 19.1683 33.475 20.4506 33.821C21.7326 34.167 23.0517 33.4247 23.4271 32.1588L23.4435 32.1001L26.7638 19.7954L26.7791 19.736C27.0916 18.4532 26.325 17.1481 25.0428 16.8022ZM67.7052 19.1282C66.4229 18.7821 65.1039 19.5243 64.7286 20.7903L64.7119 20.8491L62.4809 29.1167C63.9263 29.8305 65.3056 30.6709 66.6029 31.628L66.8176 31.7881L69.4263 22.1213L69.4412 22.062C69.7539 20.7792 68.9876 19.4741 67.7052 19.1282ZM45.9893 5.25476C44.4319 5.39239 42.8823 5.61129 41.3476 5.91059L41.0219 5.97546L37.9273 17.4473L37.9119 17.5067C37.5996 18.7895 38.3663 20.0946 39.6483 20.4405C40.9306 20.7866 42.2496 20.0444 42.6249 18.7784L42.6413 18.7196L45.9616 6.41489L45.9769 6.35553C46.0653 5.99439 46.0696 5.61779 45.9893 5.25476ZM76.5419 13.7544L75.8896 16.1723L75.8743 16.2315C75.5619 17.5143 76.3286 18.8194 77.6106 19.1653C78.8926 19.5114 80.2119 18.7692 80.5873 17.5032L80.6036 17.4444L80.6749 17.1821C79.4539 16.0402 78.1703 14.967 76.8303 13.9674L76.5419 13.7544ZM57.2239 5.65593L56.0462 10.0198L56.0313 10.0792C55.7186 11.362 56.4852 12.6671 57.7676 13.013C59.0496 13.359 60.3686 12.6169 60.7443 11.3508L60.7606 11.2921L61.9999 6.69889C60.5413 6.29559 59.0633 5.96673 57.5713 5.71353L57.2239 5.65593Z" fill="white"/>
<path d="M32.3028 82.0843C32.678 80.8183 33.9973 80.0763 35.2793 80.422C36.5617 80.7676 37.328 82.073 37.0157 83.356L37.0003 83.4153L34.624 92.2213L34.292 92.099C32.8612 91.5646 31.4588 90.9576 30.0903 90.2796L32.2862 82.143L32.3028 82.0843Z" fill="white"/>
<path d="M48.047 28.3027C33.5073 28.3027 22.1973 37.456 22.1973 48.839C22.1973 59.5897 32.6041 66.454 48.737 66.1103C50.109 66.081 50.5057 67.0027 50.952 68.2447C51.3987 69.4867 52.5987 76.0323 53.555 81.039C54.411 85.52 55.2807 90.0173 55.9447 94.532C66.4797 93.1393 76.221 87.9357 83.3587 80.087L75.7457 51.696C73.848 44.8393 71.63 38.5213 65.761 33.9313C61.0393 30.2389 55.0407 28.3027 48.047 28.3027Z" fill="white"/>
<path d="M51.1719 36.5233C52.8979 36.5233 54.2969 37.9223 54.2969 39.6483C54.2969 41.3743 52.8979 42.7733 51.1719 42.7733C49.4459 42.7733 48.0469 41.3743 48.0469 39.6483C48.0469 37.9223 49.4459 36.5233 51.1719 36.5233Z" fill="black"/>
</svg>
