<svg width="106" height="103" viewBox="0 0 106 103" fill="none" xmlns="http://www.w3.org/2000/svg">
<path d="M94.2519 24.4978C93.6801 22.6681 92.3079 21.1815 90.5926 20.2667L55.7145 3.57092C54.7996 3.1135 53.7704 2.99915 52.8556 2.99915C51.9408 2.99915 50.9116 2.99915 49.9967 3.22785L15.1186 20.038C13.4033 20.8384 12.1454 22.325 11.688 24.2691L3.11142 61.8917C2.76836 63.8357 3.22578 65.7797 4.36932 67.3807L28.4981 97.2272C29.8704 98.5994 31.8144 99.5143 33.7584 99.6286H72.1815C74.2399 99.8573 76.1839 98.9425 77.4418 97.2272L101.571 67.3807C102.714 65.7797 103.172 63.8357 102.943 61.8917L94.2519 24.4978Z" fill="white" stroke="white" stroke-width="5" stroke-miterlimit="10"/>
<path d="M94.2519 24.4978C93.6801 22.6681 92.3079 21.1815 90.5926 20.2667L55.7145 3.57092C54.7996 3.1135 53.7704 2.99915 52.8556 2.99915C51.9408 2.99915 50.9116 2.99915 49.9967 3.22785L15.1186 20.038C13.4033 20.8384 12.1454 22.325 11.688 24.2691L3.11142 61.8917C2.76836 63.8357 3.22578 65.7797 4.36932 67.3807L28.4981 97.2272C29.8704 98.5994 31.8144 99.5143 33.7584 99.6286H72.1815C74.2399 99.8573 76.1839 98.9425 77.4418 97.2272L101.571 67.3807C102.714 65.7797 103.172 63.8357 102.943 61.8917L94.2519 24.4978Z" fill="#326DE6"/>
<path d="M88.8772 60.4051C88.7629 60.4051 88.6485 60.4051 88.6485 60.2907C88.6485 60.1764 88.4198 60.1764 88.1911 60.1764C87.7337 60.062 87.2763 60.062 86.8188 60.062C86.5901 60.062 86.3614 60.062 86.1327 59.9477H86.0184C84.7605 59.8333 83.3882 59.6046 82.1303 59.2616C81.7872 59.1472 81.4442 58.8041 81.3298 58.4611L80.415 58.2324C80.8724 54.9161 80.6437 51.4855 79.9576 48.1692C79.1571 44.8529 77.7848 41.651 75.9552 38.7921L76.6413 38.106V37.9916C76.6413 37.6486 76.7556 37.1912 76.9844 36.9624C78.0135 36.0476 79.0427 35.3615 80.1863 34.6754C80.415 34.561 80.6437 34.4466 80.8724 34.3323C81.3298 34.1036 81.6729 33.8749 82.1303 33.6462C82.2447 33.5318 82.359 33.5318 82.4734 33.4175C82.5877 33.3031 82.4734 33.3031 82.4734 33.1887C83.5026 32.3883 83.7313 31.016 82.9308 29.9868C82.5877 29.5294 81.9016 29.1863 81.3298 29.1863C80.7581 29.1863 80.1863 29.4151 79.7289 29.7581L79.6145 29.8725C79.5002 29.9868 79.3858 30.1012 79.2714 30.1012C78.9284 30.4442 78.5853 30.7873 78.3566 31.1304C78.2423 31.3591 78.0136 31.4734 77.8992 31.5878C77.0987 32.5026 76.0695 33.4175 75.0403 34.1036C74.8116 34.2179 74.5829 34.3323 74.3542 34.3323C74.2399 34.3323 74.0112 34.3323 73.8968 34.2179H73.7824L72.8676 34.7897C71.9528 33.8749 70.9236 32.96 70.0087 32.0452C65.7776 28.7289 60.5173 26.6705 55.1427 26.0988L55.0283 25.1839V25.2983C54.6853 25.0696 54.5709 24.7265 54.4565 24.3835C54.4565 23.1256 54.4565 21.8677 54.6853 20.4954V20.3811C54.6853 20.1523 54.7996 19.9236 54.7996 19.6949C54.914 19.2375 54.914 18.7801 55.0283 18.3227V17.6365C55.1427 16.493 54.2278 15.3495 53.0843 15.2351C52.3982 15.1208 51.712 15.4638 51.1403 16.0356C50.6828 16.493 50.4541 17.0648 50.4541 17.6365V18.2083C50.4541 18.6657 50.5685 19.1232 50.6828 19.5806C50.7972 19.8093 50.7972 20.038 50.7972 20.2667V20.3811C51.0259 21.639 51.0259 22.8969 51.0259 24.2691C50.9116 24.6122 50.7972 24.9552 50.4541 25.1839V25.4126L50.3398 26.3275C49.0819 26.4418 47.824 26.6705 46.4517 26.8993C41.0771 28.0428 36.1598 30.9017 32.3861 34.9041L31.7 34.4466H31.5857C31.4713 34.4466 31.357 34.561 31.1282 34.561C30.8995 34.561 30.6708 34.4466 30.4421 34.3323C29.4129 33.5318 28.3837 32.617 27.5833 31.7021C27.4689 31.4734 27.2402 31.3591 27.1258 31.2447C26.7828 30.9017 26.5541 30.5586 26.211 30.2155C26.0966 30.1012 25.9823 30.1012 25.8679 29.9868C25.7536 29.8725 25.7536 29.8725 25.7536 29.8725C25.2962 29.5294 24.7244 29.3007 24.1526 29.3007C23.4665 29.3007 22.8947 29.5294 22.5517 30.1012C21.8655 31.1304 22.0942 32.5026 23.0091 33.3031C23.1234 33.3031 23.1234 33.4175 23.1234 33.4175C23.1234 33.4175 23.3521 33.6462 23.4665 33.6462C23.8096 33.8749 24.267 34.1036 24.7244 34.3323C24.9531 34.4466 25.1818 34.561 25.4105 34.6754C26.5541 35.3615 27.6976 36.0476 28.6124 36.9624C28.8412 37.1912 29.0699 37.6486 28.9555 37.9916V37.8773L29.6416 38.5634C29.5273 38.7921 29.4129 38.9065 29.2986 39.1352C25.7536 44.7385 24.267 51.3711 25.2962 57.8893L24.3813 58.118C24.3813 58.2324 24.267 58.2324 24.267 58.2324C24.1526 58.5754 23.8096 58.8041 23.4665 59.0328C22.2086 59.3759 20.9507 59.6046 19.5784 59.719C19.3497 59.719 19.121 59.719 18.8923 59.8333C18.4349 59.8333 17.9775 59.9477 17.5201 59.9477C17.4057 59.9477 17.2914 60.062 17.0627 60.062C16.9483 60.062 16.9483 60.062 16.8339 60.1764C15.576 60.4051 14.7756 61.5486 15.0043 62.8065C15.233 63.8357 16.2622 64.5219 17.2914 64.4075C17.5201 64.4075 17.6344 64.4075 17.8631 64.2931C17.9775 64.2931 17.9775 64.2931 17.9775 64.1788C17.9775 64.0644 18.3206 64.1788 18.4349 64.1788C18.8923 64.0644 19.3497 63.8357 19.6928 63.7214C19.9215 63.607 20.1502 63.4927 20.3789 63.4927H20.4933C21.7512 63.0353 22.8947 62.6922 24.267 62.4635H24.3813C24.7244 62.4635 25.0675 62.5778 25.2962 62.8065C25.4105 62.8065 25.4105 62.9209 25.4105 62.9209L26.4397 62.8065C28.155 68.0668 31.357 72.7554 35.8168 76.186C36.846 76.9865 37.7608 77.6726 38.9043 78.2444L38.3326 79.0449C38.3326 79.1592 38.4469 79.1592 38.4469 79.1592C38.6756 79.5023 38.6756 79.9597 38.5613 80.3028C38.1039 81.4463 37.4177 82.5899 36.7316 83.619V83.7334C36.6173 83.9621 36.5029 84.0765 36.2742 84.3052C36.0455 84.5339 35.8168 84.9913 35.4737 85.4487C35.3594 85.5631 35.3594 85.6774 35.245 85.7918C35.245 85.7918 35.245 85.9061 35.1306 85.9061C34.5589 87.0497 35.0163 88.4219 36.0455 88.9937C36.2742 89.108 36.6173 89.2224 36.846 89.2224C37.7608 89.2224 38.5613 88.6506 39.0187 87.8502C39.0187 87.8502 39.0187 87.7358 39.1331 87.7358C39.1331 87.6214 39.2474 87.5071 39.3618 87.3927C39.4761 86.9353 39.7048 86.5923 39.8192 86.1348L40.0479 85.4487C40.391 84.1908 40.9627 83.0473 41.5345 81.9037C41.7632 81.5607 42.1063 81.332 42.4493 81.2176C42.5637 81.2176 42.5637 81.2176 42.5637 81.1032L43.0211 80.1884C46.223 81.4463 49.5393 82.0181 52.9699 82.0181C55.0283 82.0181 57.0867 81.7894 59.1451 81.2176C60.403 80.9889 61.6609 80.5315 62.8044 80.1884L63.2618 80.9889C63.3762 80.9889 63.3762 80.9889 63.3762 81.1032C63.7192 81.2176 64.0623 81.4463 64.291 81.7894C64.8628 82.9329 65.4346 84.0765 65.7776 85.3344V85.4487L66.0063 86.1348C66.1207 86.5923 66.2351 87.0497 66.4638 87.3927C66.5781 87.5071 66.5781 87.6214 66.6925 87.7358C66.6925 87.7358 66.6925 87.8502 66.8068 87.8502C67.2642 88.6506 68.0647 89.2224 68.9796 89.2224C69.3226 89.2224 69.5513 89.108 69.8944 88.9937C70.3518 88.765 70.8092 88.3076 70.9236 87.7358C71.0379 87.164 71.0379 86.5923 70.8092 86.0205C70.8092 85.9061 70.6949 85.9061 70.6949 85.9061C70.6949 85.7918 70.5805 85.6774 70.4662 85.5631C70.2375 85.1056 70.0087 84.7626 69.6657 84.4195C69.5513 84.1908 69.437 84.0765 69.2083 83.8477V83.619C68.4078 82.5899 67.836 81.4463 67.3786 80.3028C67.2642 79.9597 67.2642 79.5023 67.493 79.1592C67.493 79.0449 67.6073 79.0449 67.6073 79.0449L67.2642 78.13C73.0963 74.585 77.5561 69.096 79.6145 62.5778L80.5294 62.6922C80.6437 62.6922 80.6437 62.5778 80.6437 62.5778C80.8724 62.3491 81.2155 62.2348 81.5585 62.2348H81.6729C82.9308 62.4635 84.1887 62.8065 85.3322 63.264H85.4466C85.6753 63.3783 85.904 63.4927 86.1327 63.4927C86.5901 63.7214 86.9332 63.9501 87.3906 64.0644C87.505 64.0644 87.6193 64.1788 87.848 64.1788C87.9624 64.1788 87.9624 64.1788 88.0767 64.2931C88.3055 64.4075 88.4198 64.4075 88.6485 64.4075C89.6777 64.4075 90.5925 63.7214 90.9356 62.8065C90.8212 61.5486 89.9064 60.6338 88.8772 60.4051ZM55.8288 56.8601L52.7412 58.3467L49.6537 56.8601L48.8532 53.5438L51.0259 50.7993H54.4565L56.6293 53.5438L55.8288 56.8601ZM74.4686 49.4271C75.0403 51.8285 75.1547 54.23 74.926 56.6314L64.0623 53.5438C63.0331 53.3151 62.4614 52.2859 62.6901 51.2567C62.8044 50.9137 62.9188 50.685 63.1475 50.4563L71.7241 42.6802C72.982 44.7385 73.8968 47.0256 74.4686 49.4271ZM68.2934 38.4491L58.9164 45.0816C58.1159 45.539 56.9723 45.4247 56.4006 44.6242C56.1719 44.3955 56.0575 44.1668 56.0575 43.8237L55.3714 32.2739C60.403 32.8457 64.8628 35.0184 68.2934 38.4491ZM47.5953 32.617L49.8824 32.1596L49.3106 43.595C49.3106 44.6242 48.3958 45.4247 47.3666 45.4247C47.0235 45.4247 46.7948 45.3103 46.4517 45.196L36.9603 38.4491C39.9335 35.5902 43.5929 33.5318 47.5953 32.617ZM33.644 42.6802L42.1063 50.2276C42.9067 50.9137 43.0211 52.0572 42.335 52.8577C42.1063 53.2008 41.8776 53.3151 41.4201 53.4295L30.3278 56.6314C29.9847 51.8285 31.1282 46.9113 33.644 42.6802ZM31.7 62.0061L43.0211 60.062C43.9359 60.062 44.8508 60.6338 44.9651 61.5486C45.0795 61.8917 45.0795 62.3491 44.8508 62.6922L40.5053 73.2128C36.5029 70.5826 33.301 66.5802 31.7 62.0061ZM57.6585 76.186C56.0575 76.5291 54.4565 76.7578 52.7412 76.7578C50.3398 76.7578 47.824 76.3004 45.5369 75.6142L51.1403 65.4367C51.712 64.7506 52.6269 64.5219 53.4274 64.9793C53.7704 65.208 53.9991 65.4367 54.3422 65.7798L59.8312 75.7286C59.1451 75.8429 58.4589 75.9573 57.6585 76.186ZM71.6097 66.2372C69.8944 68.9817 67.4929 71.3831 64.7484 73.0984L60.2886 62.3491C60.0599 61.4343 60.5173 60.5195 61.3178 60.1764C61.6609 60.062 62.0039 59.9477 62.347 59.9477L73.7824 61.8917C73.2107 63.4927 72.5245 64.9793 71.6097 66.2372Z" fill="white"/>
</svg>
