<svg width="100" height="100" viewBox="0 0 100 100" fill="none" xmlns="http://www.w3.org/2000/svg">
<path fill-rule="evenodd" clip-rule="evenodd" d="M58.8812 -0.000854492C58.1581 -0.000854492 57.4866 0.154102 56.8668 0.360698C58.1839 1.23875 58.907 2.40089 59.2685 3.71797C59.2944 3.89874 59.346 4.02787 59.3719 4.20864C59.3978 4.3636 59.4235 4.51855 59.4235 4.6735C59.5268 6.94611 58.8295 7.23019 58.3388 8.57309C57.5899 10.3034 57.7965 12.1628 58.7004 13.6607C58.7779 13.8414 58.8812 14.048 59.0103 14.2288C58.0289 7.69504 63.478 6.71369 64.4852 4.6735C64.5627 2.89156 63.0907 1.70361 61.9285 0.8772C60.818 0.205748 59.8109 -0.000854492 58.8812 -0.000854492ZM67.0936 1.47118C66.9902 2.06516 67.0677 1.91021 67.0419 2.22011C67.0161 2.42671 67.0161 2.68497 66.9903 2.89156C66.9387 3.09816 66.887 3.30476 66.8095 3.51137C66.7579 3.71797 66.6804 3.92457 66.603 4.13117C66.4996 4.33778 66.4222 4.51855 66.3189 4.72515C66.2414 4.82849 66.1898 4.93175 66.1123 5.03505C66.0607 5.11253 66.0089 5.19 65.9573 5.26748C65.8282 5.44826 65.6991 5.62903 65.5699 5.78398C65.415 5.93893 65.2859 6.1197 65.1051 6.24884V6.2747C64.9501 6.40382 64.7952 6.55877 64.6144 6.6879C64.0721 7.10109 63.4523 7.411 62.8841 7.79838C62.7034 7.9275 62.5226 8.03081 62.3676 8.18576C62.1869 8.31488 62.0319 8.444 61.877 8.59896C61.6962 8.75391 61.567 8.90886 61.4121 9.08964C61.283 9.24459 61.128 9.42536 61.0247 9.60614C60.8956 9.78691 60.7665 9.96769 60.6632 10.1485C60.5598 10.3551 60.4824 10.5358 60.3791 10.7424C60.3016 10.949 60.2241 11.1298 60.1725 11.3364C60.095 11.5688 60.0434 11.7755 59.9917 11.9821C59.9659 12.0854 59.9659 12.2145 59.9401 12.3178C59.9142 12.4211 59.9142 12.5244 59.8885 12.6277C59.8885 12.8343 59.8626 13.0667 59.8626 13.2733C59.8626 13.4283 59.8626 13.5832 59.8885 13.7382C59.8885 13.9448 59.9144 14.1514 59.966 14.3838C59.9918 14.5904 60.0434 14.797 60.0951 15.0036C60.1726 15.2102 60.2242 15.4168 60.3017 15.6234C60.3533 15.7525 60.4308 15.8817 60.4825 15.9849L54.5427 13.6865C53.5355 13.4024 52.5542 13.1442 51.547 12.9118C51.0046 12.7826 50.4623 12.6535 49.92 12.5244C48.3705 12.2145 46.7952 11.9821 45.2198 11.8271C45.1682 11.8271 45.1423 11.8012 45.0907 11.8012C43.5412 11.6463 42.0175 11.5688 40.468 11.5688C39.3317 11.5688 38.1954 11.6204 37.0849 11.6979C35.5095 11.8013 33.9342 12.0079 32.3589 12.2661C31.9715 12.3177 31.5841 12.3952 31.1967 12.4727C30.3962 12.6276 29.6214 12.8084 28.8725 12.9892C28.4851 13.0925 28.0977 13.1958 27.7103 13.2991C27.323 13.4541 26.9614 13.6348 26.5999 13.7898C26.3158 13.9189 26.0317 14.048 25.7476 14.1772C25.696 14.203 25.6443 14.203 25.6185 14.2288C25.3603 14.3579 25.1278 14.4612 24.8954 14.5903C24.8179 14.6162 24.7663 14.6419 24.7146 14.6678C24.4306 14.7969 24.1465 14.9519 23.9141 15.081C23.7333 15.1585 23.5525 15.2618 23.3976 15.3393C23.3201 15.3909 23.2168 15.4426 23.1651 15.4684C22.9327 15.5975 22.7003 15.7266 22.4937 15.8558C22.2612 15.9849 22.0546 16.114 21.8739 16.2431C21.6931 16.3723 21.5123 16.4756 21.3574 16.6047C21.3315 16.6305 21.3057 16.6305 21.2799 16.6563C21.1249 16.7596 20.9442 16.8887 20.7892 17.0179C20.7892 17.0179 20.7633 17.0437 20.7376 17.0695C20.6085 17.1728 20.4793 17.2761 20.3502 17.3794C20.2986 17.4052 20.2469 17.4568 20.1953 17.4827C20.0661 17.586 19.937 17.7151 19.8079 17.8184C19.782 17.87 19.7304 17.8959 19.7046 17.9218C19.5496 18.0767 19.3947 18.2058 19.2397 18.3608C19.2138 18.3608 19.2138 18.3867 19.1881 18.4124C19.0331 18.5415 18.8782 18.6965 18.7232 18.8514C18.6974 18.8773 18.6974 18.903 18.6716 18.903C18.5425 19.0322 18.4134 19.1613 18.2842 19.3162C18.2326 19.3679 18.1551 19.4196 18.1035 19.4712C17.9744 19.6261 17.8194 19.7811 17.6644 19.9361C17.6386 19.9877 17.587 20.0135 17.5611 20.0652C17.3545 20.2718 17.1737 20.4784 16.9671 20.685C16.9413 20.7108 16.9155 20.7366 16.8897 20.7625C16.4764 21.2015 16.0374 21.6405 15.5726 22.0279C15.1077 22.4411 14.617 22.8285 14.1264 23.1642C13.6099 23.5258 13.1192 23.8356 12.5768 24.1455C12.0603 24.4296 11.518 24.6879 10.9499 24.9203C10.4075 25.1527 9.83938 25.3593 9.27123 25.5401C8.18657 25.7725 7.07609 26.2116 6.12056 26.289C5.91396 26.289 5.68153 26.3406 5.47493 26.3665C5.2425 26.4181 5.0359 26.4699 4.82931 26.5215C4.62271 26.5989 4.4161 26.6764 4.2095 26.7539C4.0029 26.8314 3.7963 26.9347 3.5897 27.038C3.40892 27.1671 3.20232 27.2704 3.02154 27.3995C2.84077 27.5286 2.65999 27.6836 2.50504 27.8385C2.32427 27.9677 2.14349 28.1484 1.98853 28.3034C1.83358 28.4842 1.67863 28.6391 1.54951 28.8199C1.42038 29.0265 1.26543 29.2073 1.16213 29.4139C1.033 29.5947 0.903882 29.8013 0.800576 30.0078C0.697234 30.2403 0.593977 30.4469 0.516501 30.6793C0.439025 30.8859 0.361549 31.1183 0.284073 31.3508C0.232463 31.5574 0.180732 31.764 0.154951 31.9706C0.154951 31.9965 0.129086 32.0222 0.129086 32.048C0.0774755 32.2805 0.0774754 32.5904 0.0516095 32.7453C0.0257446 32.9261 0 33.0811 0 33.2618C0 33.3652 8.03957e-08 33.4943 0.025865 33.5976C0.0517299 33.7783 0.0774744 33.9333 0.129207 34.0882C0.180817 34.2432 0.232549 34.3981 0.309976 34.5531V34.579C0.387452 34.7339 0.490757 34.8889 0.594051 35.0438C0.697393 35.1988 0.800662 35.3537 0.929784 35.5087C1.05891 35.6378 1.21386 35.7927 1.36881 35.9219C1.52376 36.0768 1.67872 36.2059 1.85948 36.3351C2.47929 36.8774 2.63424 37.0582 3.43482 37.4714C3.56394 37.5489 3.69308 37.6005 3.84803 37.678C3.8739 37.678 3.89964 37.7038 3.92551 37.7038C3.92551 37.7554 3.92551 37.7813 3.95138 37.833C3.97724 38.0396 4.02885 38.2462 4.0805 38.4528C4.13211 38.6852 4.20963 38.8918 4.28711 39.0726C4.36459 39.2275 4.41623 39.3825 4.49371 39.5374C4.51957 39.589 4.54532 39.6408 4.57119 39.6666C4.67453 39.8731 4.77778 40.0539 4.88108 40.2347C5.01021 40.4155 5.13933 40.5963 5.26846 40.777C5.39758 40.932 5.55253 41.1128 5.70748 41.2677C5.86244 41.4227 6.01739 41.5518 6.19817 41.7067C6.19817 41.7067 6.22404 41.7326 6.24978 41.7326C6.40473 41.8618 6.55968 41.9909 6.71464 42.0942C6.89541 42.2233 7.07619 42.3266 7.28279 42.4299C7.46357 42.5333 7.67017 42.6365 7.87676 42.714C8.03172 42.7915 8.21248 42.8431 8.39327 42.8948C8.41914 42.9207 8.44488 42.9207 8.49661 42.9464C8.59995 42.9723 8.72902 42.998 8.83233 43.0239C8.75485 44.4184 8.72899 45.7355 8.93567 46.2003C9.16809 46.7168 10.3044 45.1415 11.4407 43.3338C11.2858 45.1157 11.1825 47.2075 11.4407 47.8273C11.7248 48.4729 13.2743 46.4586 14.6172 44.2376C32.9272 40.0023 49.6361 52.6566 51.3922 70.5276C51.0565 67.7385 47.6217 66.189 46.0464 66.5764C45.2717 68.4874 43.9546 70.9408 41.8369 72.4645C42.0177 70.7601 41.9403 69.004 41.5787 67.2995C41.0105 69.6754 39.9 71.8964 38.3763 73.8074C35.923 73.9882 33.4696 72.8002 32.1783 71.0183C32.075 70.9408 32.0492 70.7859 31.9717 70.6826C31.8942 70.5018 31.8167 70.321 31.7651 70.1403C31.6876 69.9595 31.636 69.7787 31.6101 69.5979C31.5843 69.4172 31.5843 69.2364 31.5843 69.0298C31.5843 68.9007 31.5843 68.7715 31.5843 68.6424C31.6101 68.4616 31.6618 68.2808 31.7134 68.1001C31.765 67.9193 31.8167 67.7385 31.8942 67.5577C31.9975 67.377 32.075 67.1962 32.2041 67.0154C32.6431 65.7758 32.6431 64.7686 31.8425 64.1747C31.6876 64.0713 31.5326 63.9939 31.3518 63.9164C31.2485 63.8905 31.1194 63.8389 31.0161 63.8131C30.9387 63.7872 30.887 63.7614 30.8095 63.7356C30.6287 63.684 30.448 63.6322 30.2672 63.6064C30.0864 63.5548 29.9056 63.529 29.7249 63.529C29.5441 63.5031 29.3375 63.4774 29.1567 63.4774C29.0276 63.4774 28.8985 63.5032 28.7693 63.5032C28.5627 63.5032 28.382 63.5291 28.2012 63.5807C28.0204 63.6066 27.8396 63.6323 27.6589 63.684C27.4781 63.7356 27.2973 63.7874 27.1165 63.8648C26.9358 63.9423 26.7808 64.0198 26.6 64.0973C26.4451 64.1747 26.2901 64.278 26.1093 64.3555C20.0921 68.2809 23.6818 77.4747 27.788 80.1347C26.2385 80.4187 24.6631 80.7545 24.2241 81.0902C24.1982 81.1161 24.1725 81.1418 24.1725 81.1418C25.283 81.8133 26.4451 82.3814 27.6589 82.8721C29.3117 83.4144 31.0678 83.9051 31.8426 84.1117V84.1376C33.9861 84.5766 36.1554 84.7315 38.3505 84.6024C49.7911 83.8018 59.1656 75.0987 60.8701 63.6324C60.9217 63.8648 60.9734 64.0714 61.025 64.3038C61.1025 64.7687 61.2058 65.2594 61.2574 65.75V65.7759C61.309 66.0084 61.3349 66.2408 61.3608 66.4474V66.5507C61.3867 66.7832 61.4124 67.0156 61.4124 67.2222C61.4382 67.5063 61.464 67.7903 61.464 68.0744V68.4876C61.464 68.6168 61.4898 68.7717 61.4898 68.9008C61.4898 69.0558 61.464 69.2107 61.464 69.3657V69.7272C61.464 69.908 61.4381 70.063 61.4381 70.2437C61.4381 70.3471 61.4381 70.4503 61.4122 70.5795C61.4122 70.7602 61.3864 70.941 61.3864 71.1476C61.3605 71.2251 61.3605 71.3026 61.3605 71.38C61.3346 71.5866 61.3089 71.7674 61.283 71.974C61.283 72.0515 61.283 72.129 61.2571 72.2065C61.2312 72.4647 61.1797 72.6971 61.1538 72.9554V72.9813V73.0071C61.1022 73.2396 61.0505 73.4978 60.9988 73.7302V73.8077C60.9472 74.0401 60.8955 74.2726 60.8439 74.505C60.8439 74.5309 60.8181 74.5825 60.8181 74.6083C60.7664 74.8407 60.7147 75.0732 60.6373 75.3056V75.3831C60.5598 75.6413 60.4823 75.8737 60.4307 76.1062C60.4048 76.132 60.4048 76.1578 60.4048 76.1578C60.3273 76.416 60.2499 76.6743 60.1724 76.9325C60.0691 77.1908 59.9916 77.4232 59.8883 77.6815C59.785 77.9397 59.7075 78.198 59.6042 78.4304C59.5009 78.6887 59.3976 78.9211 59.2943 79.1793H59.2684C59.1651 79.4118 59.0618 79.67 58.9327 79.9025C58.9068 79.9799 58.8811 80.0316 58.8552 80.0832C58.8294 80.1091 58.8294 80.1348 58.8036 80.1607C57.125 83.5438 54.6458 86.5137 51.5468 88.8379C51.3402 88.9671 51.1335 89.122 50.927 89.277C50.8753 89.3286 50.7978 89.3544 50.7462 89.4061C50.5654 89.5352 50.3846 89.6643 50.178 89.7935L50.2555 89.9484H50.2814C50.6429 89.8968 51.0045 89.8451 51.366 89.7935H51.3919C52.0633 89.6901 52.7348 89.561 53.4062 89.4319C53.587 89.406 53.7936 89.3544 53.9744 89.3028C54.1035 89.2769 54.2068 89.2512 54.3359 89.2253C54.5167 89.1994 54.6975 89.1478 54.8783 89.122C55.0332 89.0704 55.1882 89.0445 55.3431 88.9928C57.9256 88.373 60.4307 87.5208 62.8324 86.5136C58.7262 92.1177 53.2255 96.6371 46.795 99.607C49.7649 99.4004 52.7348 98.9097 55.6014 98.0833C66.0089 95.0101 74.7636 88.0115 80.0061 78.5853C78.9473 84.5509 76.5714 90.2325 73.0592 95.1909C75.5642 93.5381 77.8626 91.627 79.9545 89.4577C85.7393 83.4146 89.5356 75.7446 90.8269 67.5063C91.7049 71.5867 91.9632 75.7962 91.5758 79.954C110.222 53.9481 93.1253 26.9867 85.9717 19.8847C85.9459 19.8331 85.9201 19.8073 85.9201 19.7556C85.8942 19.7815 85.8942 19.7815 85.8942 19.8072C85.8942 19.7814 85.8942 19.7814 85.8684 19.7556C85.8684 20.0655 85.8425 20.3754 85.8168 20.6853C85.7393 21.2793 85.6618 21.8474 85.5585 22.4156C85.4294 22.9838 85.2744 23.5519 85.1195 24.1201C84.9387 24.6624 84.7321 25.2305 84.4997 25.7729C84.2673 26.2894 84.009 26.8317 83.7249 27.3482C83.4409 27.8389 83.131 28.3554 82.7952 28.8202C82.4595 29.3109 82.098 29.7758 81.7364 30.2148C81.349 30.6796 80.9358 31.0929 80.5226 31.5061C80.2644 31.7385 80.0319 31.9451 79.7737 32.1517C79.5671 32.3325 79.3863 32.4874 79.1797 32.6682C78.7149 33.0297 78.25 33.3655 77.7335 33.6754C77.2428 33.9853 76.7263 34.2952 76.2098 34.5534C75.6675 34.8117 75.1252 35.0441 74.5828 35.2765C74.0405 35.4831 73.4724 35.6639 72.9042 35.8189C72.336 35.9738 71.7421 36.1029 71.1739 36.2062C70.5799 36.3096 69.986 36.3612 69.4178 36.4128C69.0046 36.4387 68.5914 36.4644 68.1782 36.4644C67.5842 36.4644 66.9902 36.4128 66.4221 36.3611C65.8281 36.3095 65.2341 36.232 64.666 36.1028C64.072 35.9995 63.5038 35.8446 62.9357 35.6638H62.9098C63.478 35.6122 64.0461 35.5605 64.6143 35.4572C65.2083 35.3539 65.7764 35.2248 66.3446 35.0698C66.9127 34.9149 67.4809 34.7341 68.0232 34.5275C68.5914 34.3209 69.1337 34.0627 69.6502 33.8044C70.1925 33.5461 70.6832 33.2621 71.1997 32.9522C71.6904 32.6165 72.1811 32.2807 72.6459 31.9192C73.1108 31.5576 73.5498 31.1702 73.963 30.757C74.402 30.3697 74.7894 29.9306 75.1768 29.4916C75.5641 29.0268 75.9257 28.5619 76.2614 28.097C76.313 28.0196 76.3648 27.9163 76.4164 27.8388C76.6746 27.4256 76.9329 27.0124 77.1653 26.5992C77.4494 26.0827 77.7076 25.5662 77.9401 25.0239C78.1725 24.4815 78.3791 23.9392 78.5599 23.371C78.7406 22.8287 78.8698 22.2606 78.9989 21.6924C79.1023 21.0984 79.2055 20.5303 79.2572 19.9621C79.3088 19.3682 79.3605 18.7742 79.3605 18.206C79.3605 17.7928 79.3346 17.3796 79.3089 16.9664C79.2573 16.3724 79.1798 15.8043 79.1023 15.2361C78.9989 14.6421 78.8699 14.074 78.7149 13.5058C78.5341 12.9635 78.3534 12.3954 78.1468 11.853C77.9401 11.3107 77.6819 10.7684 77.4236 10.2519C77.1396 9.73537 76.8555 9.21887 76.5456 8.72819C76.2099 8.23752 75.8741 7.77266 75.5126 7.3078C75.1252 6.86878 74.7378 6.42975 74.3246 5.99073C74.118 5.78413 73.8856 5.5517 73.6532 5.3451C72.491 4.44122 71.2773 3.58898 70.0635 2.81423C69.8827 2.71089 69.7278 2.63345 69.547 2.55597C68.6947 2.01365 67.8941 1.72942 67.0936 1.47118Z" fill="#E0234E"/>
</svg>
