<svg width="100" height="100" viewBox="0 0 100 100" fill="none" xmlns="http://www.w3.org/2000/svg">
<path fill-rule="evenodd" clip-rule="evenodd" d="M50 75.6773C77.6143 75.6773 100 64.3324 100 50.3386C100 36.3449 77.6143 25 50 25C22.3863 25 0 36.3449 0 50.3386C0 64.3324 22.3863 75.6773 50 75.6773Z" fill="#6E81B6"/>
<path fill-rule="evenodd" clip-rule="evenodd" d="M60.1333 58.5284L62.6134 45.7639C63.1732 42.8829 62.7077 40.7341 61.2306 39.3762C59.7995 38.0624 57.3702 37.4233 53.8042 37.4233H49.5091L50.7376 31.0991C50.7607 30.9814 50.7573 30.86 50.7279 30.7438C50.6985 30.6275 50.6437 30.5192 50.5675 30.4266C50.4912 30.334 50.3955 30.2594 50.287 30.2082C50.1785 30.157 50.0601 30.1305 49.9401 30.1305H44.012C43.6226 30.1305 43.2882 30.4068 43.2139 30.7889L40.5796 44.34C40.3402 42.8152 39.7501 41.5044 38.8057 40.4228C37.0668 38.4324 34.3164 37.4233 30.6301 37.4233H19.1401C18.7508 37.4233 18.4164 37.6996 18.342 38.0811L13.0112 65.5111C12.9646 65.7499 13.0269 65.9954 13.1817 66.1828C13.3359 66.3708 13.5656 66.4791 13.8093 66.4791H19.784C20.1734 66.4791 20.5077 66.2028 20.5821 65.82L21.8717 59.1856H26.3193C28.653 59.1856 30.6144 58.9329 32.1453 58.4347C33.7106 57.9256 35.1514 57.0623 36.4211 55.8736C37.4471 54.931 38.2948 53.8754 38.9471 52.7369L37.8824 58.2171C37.8359 58.4559 37.8981 58.7026 38.0529 58.8888C38.2071 59.0768 38.4375 59.185 38.6805 59.185H44.6087C44.9981 59.185 45.3324 58.9087 45.4068 58.5272L48.3325 43.4706H52.4003C54.1337 43.4706 54.6416 43.8158 54.78 43.964C54.9052 44.0994 55.1652 44.5764 54.8732 46.0801L52.5152 58.2165C52.4926 58.3341 52.4962 58.4553 52.5259 58.5714C52.5555 58.6875 52.6104 58.7957 52.6866 58.8881C52.7628 58.9806 52.8585 59.055 52.9668 59.1063C53.0752 59.1575 53.1934 59.1842 53.3133 59.1844H59.3358C59.5242 59.1848 59.7069 59.1195 59.8525 58.9998C59.998 58.8801 60.0973 58.7134 60.1333 58.5284ZM32.6489 47.9816C32.2765 49.8952 31.5751 51.2598 30.563 52.0379C29.5352 52.8306 27.8912 53.232 25.6766 53.232H23.0284L24.9432 43.3781H28.3671C30.8822 43.3781 31.8956 43.9156 32.3025 44.366C32.8666 44.9912 32.9863 46.2421 32.6489 47.9816ZM85.1043 40.4228C83.366 38.4324 80.6156 37.4233 76.9293 37.4233H65.4393C65.0493 37.4233 64.7156 37.6996 64.6412 38.0811L59.311 65.5111C59.2638 65.7499 59.3261 65.9954 59.4809 66.1828C59.6357 66.3702 59.866 66.4791 60.1079 66.4791H66.0832C66.4732 66.4791 66.8069 66.2028 66.8813 65.82L68.1709 59.1856H72.6191C74.9535 59.1856 76.913 58.9329 78.4445 58.4347C80.0104 57.9256 81.4512 57.0623 82.7203 55.8736C83.7795 54.9008 84.6508 53.807 85.311 52.6262C85.9713 51.4454 86.4447 50.1286 86.721 48.7114C87.4 45.2161 86.8564 42.4277 85.1043 40.4228ZM79.2873 47.9816C78.9143 49.8952 78.2129 51.2598 77.202 52.0379C76.1736 52.8306 74.5296 53.232 72.3155 53.232H69.6668L71.5809 43.3781H75.0055C77.5206 43.3781 78.534 43.9156 78.9415 44.366C79.5043 44.9912 79.6247 46.2421 79.2873 47.9816Z" fill="white"/>
<path fill-rule="evenodd" clip-rule="evenodd" d="M28.1969 42.565C30.4666 42.565 31.9799 42.984 32.7363 43.822C33.492 44.66 33.6722 46.099 33.2768 48.1371C32.8632 50.2599 32.0676 51.775 30.8886 52.6832C29.7096 53.5913 27.9151 54.0447 25.5063 54.0447H21.8714L24.1024 42.565H28.1969ZM13.6384 65.6659H19.6132L21.031 58.3737H26.149C28.4073 58.3737 30.2652 58.1361 31.7236 57.6615C33.1819 57.1869 34.5078 56.3918 35.7007 55.2751C36.7019 54.3555 37.5121 53.3398 38.1324 52.2297C38.7522 51.1196 39.1923 49.8953 39.4529 48.5561C40.0853 45.3045 39.6083 42.7718 38.023 40.958C36.4383 39.1436 33.9165 38.2366 30.4599 38.2366H18.9699L13.6384 65.6659ZM43.8412 30.9438H49.7694L48.3522 38.2366H53.6341C56.9558 38.2366 59.2491 38.8159 60.5103 39.9749C61.7715 41.1339 62.1494 43.0124 61.6452 45.6092L59.165 58.3737H53.1425L55.5005 46.2368C55.7683 44.8559 55.6704 43.9145 55.2042 43.4121C54.7381 42.9103 53.7459 42.6588 52.2295 42.6588H47.4918L44.4379 58.3737H38.5097L43.8412 30.9438ZM74.8354 42.565C77.1051 42.565 78.6178 42.984 79.3748 43.822C80.1305 44.66 80.3101 46.099 79.9147 48.1371C79.5023 50.2599 78.7067 51.775 77.5271 52.6832C76.3487 53.5913 74.5536 54.0447 72.146 54.0447H68.5111L70.7415 42.565H74.8354ZM60.2757 65.6659H66.2511L67.6683 58.3737H72.7863C75.0452 58.3737 76.9031 58.1361 78.3615 57.6615C79.8198 57.1869 81.1457 56.3918 82.3386 55.2751C83.3398 54.3555 84.15 53.3398 84.7697 52.2297C85.3895 51.1196 85.8302 49.8953 86.0914 48.5561C86.7232 45.3045 86.2462 42.7718 84.6615 40.958C83.0756 39.1436 80.5544 38.2366 77.0978 38.2366H65.6078L60.2757 65.6659Z" fill="black"/>
</svg>
