<svg width="100" height="100" viewBox="0 0 100 100" fill="none" xmlns="http://www.w3.org/2000/svg">
<path d="M61.4384 -0.000854492C61.4384 0.175693 61.4384 0.35224 61.4384 0.538079C61.4384 3.57912 60.2303 6.49561 58.08 8.64596C55.9297 10.7963 53.0132 12.0043 49.9721 12.0043C46.9311 12.0043 44.0146 10.7963 41.8643 8.64596C39.7139 6.49561 38.5059 3.57912 38.5059 0.538079C38.5059 0.35224 38.5059 0.175693 38.5059 -0.000854492H0V99.9992H100V-0.000854492H61.4384ZM47.7235 89.2948L42.8545 65.2008H42.7709L37.5023 89.2948H30.7935L23.1927 53.8925H29.8179L34.3524 77.9865H34.436L39.8997 53.8925H46.0974L51.0035 78.2839H51.0872L56.2628 53.8925H62.7671L54.3208 89.2948H47.7235ZM84.2037 89.2948L81.9457 81.4152H70.0242L68.2866 89.2948H61.6614L70.2286 53.8925H80.682L91.0983 89.2948H84.2037Z" fill="#654FF0"/>
<path d="M74.2147 62.6177L71.325 75.6078H80.3196L77.0023 62.6177H74.2147Z" fill="#654FF0"/>
</svg>
