<svg width="100" height="100" viewBox="0 0 100 100" fill="none" xmlns="http://www.w3.org/2000/svg">
<path fill-rule="evenodd" clip-rule="evenodd" d="M28.854 4.99915C26.1532 5.00489 23.5095 6.54208 22.1499 8.88711L1.00382 45.719C-0.334605 48.0703 -0.334605 51.1437 1.00382 53.495L22.1499 90.3269C23.5096 92.6719 26.1532 94.2095 28.854 94.2148H71.146C73.8468 94.2091 76.4904 92.6719 77.8502 90.3269L98.9962 53.495C100.335 51.1437 100.335 48.0703 98.9962 45.719L77.8502 8.88711C76.4904 6.54208 73.8468 5.00446 71.146 4.99915H28.854ZM29.2378 26.5462C29.2959 26.5405 29.3569 26.5405 29.4151 26.5462H36.7099C37.0328 26.5529 37.346 26.7401 37.5073 27.0211L49.8819 49.1321C49.9442 49.2414 49.9843 49.3632 49.9995 49.4883C50.0148 49.3632 50.0549 49.2414 50.1172 49.1321L62.4622 27.0211C62.6286 26.7315 62.9565 26.5434 63.2891 26.5462H70.5838C71.2298 26.552 71.7135 27.3678 71.4108 27.9412L59.3317 49.607L71.4108 71.2431C71.7421 71.8198 71.2465 72.6734 70.5838 72.6677H63.2891C62.9507 72.6649 62.6208 72.4637 62.4622 72.1632L50.1172 50.0522C50.0549 49.9428 50.0148 49.821 49.9995 49.696C49.9843 49.8211 49.9442 49.9429 49.8819 50.0522L37.5073 72.1632C37.3533 72.4552 37.0385 72.6544 36.7099 72.6677H29.4151C28.7524 72.6735 28.2569 71.8198 28.5883 71.2431L40.6674 49.607L28.5883 27.9412C28.2987 27.418 28.652 26.6579 29.2378 26.5462Z" fill="#3498DB"/>
</svg>
