<svg width="42" height="51" viewBox="0 0 42 51" fill="none" xmlns="http://www.w3.org/2000/svg">
<g clip-path="url(#clip0_410_675)">
<path d="M40.0549 17.245C39.7649 17.47 34.6449 20.355 34.6449 26.77C34.6449 34.19 41.1599 36.815 41.3549 36.88C41.3249 37.04 40.3199 40.475 37.9199 43.975C35.7799 47.055 33.5449 50.13 30.1449 50.13C26.7449 50.13 25.8699 48.155 21.9449 48.155C18.1199 48.155 16.7599 50.195 13.6499 50.195C10.5399 50.195 8.3699 47.345 5.8749 43.845C2.9849 39.735 0.649902 33.35 0.649902 27.29C0.649902 17.57 6.9699 12.415 13.1899 12.415C16.4949 12.415 19.2499 14.585 21.3249 14.585C23.2999 14.585 26.3799 12.285 30.1399 12.285C31.5649 12.285 36.6849 12.415 40.0549 17.245ZM28.3549 8.16995C29.9099 6.32495 31.0099 3.76495 31.0099 1.20495C31.0099 0.849951 30.9799 0.489951 30.9149 0.199951C28.3849 0.294951 25.3749 1.88495 23.5599 3.98995C22.1349 5.60995 20.8049 8.16995 20.8049 10.765C20.8049 11.155 20.8699 11.545 20.8999 11.67C21.0599 11.7 21.3199 11.735 21.5799 11.735C23.8499 11.735 26.7049 10.215 28.3549 8.16995Z" fill="black"/>
</g>
<defs>
<clipPath id="clip0_410_675">
<rect width="40.7" height="50" fill="white" transform="translate(0.649902 0.199951)"/>
</clipPath>
</defs>
</svg>
