<svg width="42" height="51" viewBox="0 0 42 51" fill="none" xmlns="http://www.w3.org/2000/svg">
<g clip-path="url(#clip0_531_1848)">
<path d="M40.055 17.245C39.765 17.47 34.645 20.355 34.645 26.77C34.645 34.19 41.16 36.8149 41.355 36.88C41.325 37.04 40.32 40.475 37.92 43.975C35.78 47.055 33.545 50.13 30.145 50.13C26.745 50.13 25.87 48.1549 21.945 48.1549C18.12 48.1549 16.76 50.195 13.65 50.195C10.54 50.195 8.37002 47.345 5.87502 43.845C2.98502 39.735 0.650024 33.35 0.650024 27.29C0.650024 17.57 6.97002 12.415 13.19 12.415C16.495 12.415 19.25 14.585 21.325 14.585C23.3 14.585 26.38 12.285 30.14 12.285C31.565 12.285 36.685 12.415 40.055 17.245ZM28.355 8.16995C29.91 6.32495 31.01 3.76495 31.01 1.20495C31.01 0.849951 30.98 0.489951 30.915 0.199951C28.385 0.294951 25.375 1.88495 23.56 3.98995C22.135 5.60995 20.805 8.16995 20.805 10.765C20.805 11.155 20.87 11.545 20.9 11.67C21.06 11.7 21.32 11.735 21.58 11.735C23.85 11.735 26.705 10.215 28.355 8.16995Z" fill="black"/>
</g>
<defs>
<clipPath id="clip0_531_1848">
<rect width="40.7" height="50" fill="white" transform="translate(0.650024 0.199951)"/>
</clipPath>
</defs>
</svg>
