<svg width="226" height="90" viewBox="0 0 226 90" fill="none" xmlns="http://www.w3.org/2000/svg">
<path fill-rule="evenodd" clip-rule="evenodd" d="M26.8838 89.9999C22.7667 89.9999 19.4292 86.6624 19.4292 82.5454V60.4548C19.4292 56.3378 22.7667 53.0002 26.8838 53.0002C31.0008 53.0002 34.3384 56.3378 34.3384 60.4548V82.5454C34.3384 86.6624 31.0008 89.9999 26.8838 89.9999Z" fill="#3575FC"/>
<path fill-rule="evenodd" clip-rule="evenodd" d="M7.62793 89.9998C3.51088 89.9998 0.173362 86.6622 0.173362 82.5452V74.6853C0.173362 70.5682 3.51088 67.2307 7.62793 67.2307C11.745 67.2307 15.0825 70.5682 15.0825 74.6853V82.5452C15.0825 86.6622 11.745 89.9998 7.62793 89.9998Z" fill="#BDD7FF"/>
<path fill-rule="evenodd" clip-rule="evenodd" d="M65.1396 89.9994C61.0226 89.9994 57.6851 86.6619 57.6851 82.5448V41.4536C57.6851 37.3366 61.0226 33.999 65.1396 33.999C69.2567 33.999 72.5942 37.3365 72.5942 41.4536V82.5448C72.5942 86.6619 69.2567 89.9994 65.1396 89.9994Z" fill="#3575FC"/>
<path fill-rule="evenodd" clip-rule="evenodd" d="M46.0117 90C41.9637 90 38.6822 86.7185 38.6822 82.6705V66.3295C38.6822 62.2815 41.9637 59 46.0117 59C50.0597 59 53.3413 62.2815 53.3413 66.3295V82.6705C53.3413 86.7185 50.0597 90 46.0117 90Z" fill="#BDD7FF"/>
<path fill-rule="evenodd" clip-rule="evenodd" d="M103.5 89.9996C99.452 89.9996 96.1705 86.7181 96.1705 82.6701V36.3292C96.1705 32.2812 99.452 28.9996 103.5 28.9996C107.548 28.9996 110.83 32.2812 110.83 36.3292V82.6701C110.83 86.7181 107.548 89.9996 103.5 89.9996Z" fill="#3575FC"/>
<path fill-rule="evenodd" clip-rule="evenodd" d="M84.3955 89.9999C80.2785 89.9999 76.9409 86.6623 76.9409 82.5453V46.4542C76.9409 42.3372 80.2785 38.9996 84.3955 38.9996C88.5126 38.9996 91.8501 42.3372 91.8501 46.4542V82.5453C91.8501 86.6623 88.5126 89.9999 84.3955 89.9999Z" fill="#BDD7FF"/>
<path fill-rule="evenodd" clip-rule="evenodd" d="M141.884 90C137.767 90 134.429 86.6625 134.429 82.5455V20.4546C134.429 16.3375 137.767 13 141.884 13C146.001 13 149.338 16.3375 149.338 20.4546V82.5455C149.338 86.6625 146.001 90 141.884 90Z" fill="#3575FC"/>
<path fill-rule="evenodd" clip-rule="evenodd" d="M122.628 89.9998C118.511 89.9998 115.173 86.6623 115.173 82.5452V53.4543C115.173 49.3373 118.511 45.9998 122.628 45.9998C126.745 45.9998 130.083 49.3373 130.083 53.4543V82.5452C130.083 86.6623 126.745 89.9998 122.628 89.9998Z" fill="#BDD7FF"/>
<path fill-rule="evenodd" clip-rule="evenodd" d="M180.221 89.9999C176.173 89.9999 172.891 86.7183 172.891 82.6703V29.3294C172.891 25.2814 176.173 21.9999 180.221 21.9999C184.269 21.9999 187.55 25.2814 187.55 29.3294V82.6703C187.55 86.7183 184.269 89.9999 180.221 89.9999Z" fill="#3575FC"/>
<path fill-rule="evenodd" clip-rule="evenodd" d="M161.14 90C157.023 90 153.685 86.6625 153.685 82.5455V41.43C153.685 37.313 157.023 33.9755 161.14 33.9755C165.257 33.9755 168.594 37.313 168.594 41.43V82.5455C168.594 86.6625 165.257 90 161.14 90Z" fill="#BDD7FF"/>
<path fill-rule="evenodd" clip-rule="evenodd" d="M218.349 89.9997C214.136 89.9997 210.721 86.5845 210.721 82.3717L210.721 7.62794C210.721 3.41514 214.136 0 218.349 0C222.561 0 225.977 3.41515 225.977 7.62794V82.3717C225.977 86.5845 222.561 89.9997 218.349 89.9997Z" fill="#3575FC"/>
<path fill-rule="evenodd" clip-rule="evenodd" d="M199.221 90C195.079 90 191.721 86.6421 191.721 82.5L191.721 41.5C191.721 37.3579 195.079 34 199.221 34C203.363 34 206.721 37.3579 206.721 41.5V82.5C206.721 86.6421 203.363 90 199.221 90Z" fill="#BDD7FF"/>
</svg>
