<svg width="243" height="54" viewBox="0 0 243 54" fill="none" xmlns="http://www.w3.org/2000/svg">
<path d="M1 29.7835L25.3056 40.4235C28.1315 41.6606 31.4428 40.5579 33.2125 38.0313C37.7513 31.5512 46.7386 21.1497 54.1837 27.4821C64.6185 36.3573 65.2269 0.185891 77.4095 2.82915C83.4684 4.14374 84.745 20.9884 90.2006 35.0426C93.7406 44.162 95.541 49.3526 99.3873 50.9457C101.131 51.6678 102.985 50.5904 104.118 49.0813L123.812 22.8569C124.218 22.3152 124.975 22.1815 125.543 22.5511V22.5511C126.112 22.9213 126.87 22.7866 127.276 22.2432L136.514 9.88811C139.113 6.41226 144.428 6.7601 146.552 10.545L152.704 21.5098C154.268 24.2975 157.751 25.3573 160.603 23.9133V23.9133C162.967 22.7166 165.836 23.2214 167.649 25.1529L182.844 41.3402C185.055 43.6956 188.734 43.8777 191.166 41.7521L209.744 25.5196C211.352 24.1149 213.637 23.7896 215.572 24.6898V24.6898C217.848 25.7478 220.552 25.0987 222.099 23.1232L233.75 8.24421C235.513 5.99227 238.782 5.62574 241 7.43111V7.43111" stroke="#3575FC" stroke-width="4"/>
</svg>
