<svg width="170" height="170" viewBox="0 0 170 170" fill="none" xmlns="http://www.w3.org/2000/svg">
<path d="M67.346 9.15527e-05H8.15087C3.8313 9.15527e-05 0.329529 3.3946 0.329529 7.58193V96.7036C0.329529 100.891 3.8313 104.285 8.15087 104.285H67.346C71.6655 104.285 75.1673 100.891 75.1673 96.7036V7.58193C75.1673 3.3946 71.6655 9.15527e-05 67.346 9.15527e-05Z" fill="#BFDEFF"/>
<path opacity="0.3" fillRule="evenodd" clipRule="evenodd" d="M94.6389 7.58193C94.6389 5.57111 95.4623 3.64263 96.9296 2.22076C98.3957 0.798896 100.386 9.15527e-05 102.46 9.15527e-05H161.655C163.73 9.15527e-05 165.72 0.798896 167.187 2.22076C168.653 3.64263 169.477 5.57111 169.477 7.58193V96.7036C169.477 98.7144 168.653 100.643 167.187 102.065C165.72 103.487 163.73 104.285 161.655 104.285H102.46C100.386 104.285 98.3957 103.487 96.9296 102.065C95.4623 100.643 94.6389 98.7144 94.6389 96.7036V7.58193Z" fill="#BFDEFF"/>
<path opacity="0.3" fillRule="evenodd" clipRule="evenodd" d="M1.09119 127.707C1.09119 125.695 1.91526 123.767 3.38206 122.346C4.84886 120.924 6.83817 120.125 8.91253 120.125H161.656C163.73 120.125 165.72 120.924 167.187 122.346C168.653 123.767 169.478 125.695 169.478 127.707V162.418C169.478 164.429 168.653 166.358 167.187 167.78C165.72 169.202 163.73 170 161.656 170H8.91253C6.83817 170 4.84886 169.202 3.38206 167.78C1.91526 166.358 1.09119 164.429 1.09119 162.418V127.707Z" fill="#BFDEFF"/>
</svg>
