<svg width="116" height="18" viewBox="0 0 116 18" fill="none" xmlns="http://www.w3.org/2000/svg">
<path d="M108.953 14.18L105.293 4.10001H108.233L110.273 10.78L112.313 4.10001H115.273L111.613 14.18H108.953Z" fill="#111B30"/>
<path d="M105.397 8.88003C105.397 9.32003 105.384 9.6867 105.357 9.98003H98.1169C98.4102 11.26 99.1969 11.9 100.477 11.9C101.557 11.9 102.21 11.4667 102.437 10.6L105.197 11.34C104.904 12.2867 104.33 13.0267 103.477 13.56C102.624 14.08 101.597 14.34 100.397 14.34C98.7702 14.34 97.4969 13.82 96.5769 12.78C95.6702 11.7267 95.2169 10.5134 95.2169 9.14003C95.2169 8.26003 95.3836 7.44003 95.7169 6.68003C96.0502 5.92003 96.6036 5.27337 97.3769 4.74003C98.1636 4.2067 99.1102 3.94003 100.217 3.94003C101.084 3.94003 101.857 4.09337 102.537 4.40003C103.23 4.69337 103.777 5.0867 104.177 5.58003C104.577 6.07337 104.877 6.60003 105.077 7.16003C105.29 7.72003 105.397 8.29337 105.397 8.88003ZM98.1569 7.90003H102.257C102.204 7.3667 102.004 6.94003 101.657 6.62003C101.324 6.2867 100.844 6.12003 100.217 6.12003C99.1236 6.12003 98.4369 6.71337 98.1569 7.90003Z" fill="#111B30"/>
<path d="M88.2084 14.34C86.7418 14.34 85.5818 13.8734 84.7284 12.94C83.8884 11.9934 83.4684 10.7267 83.4684 9.14002C83.4684 7.55335 83.8884 6.29335 84.7284 5.36002C85.5684 4.41335 86.7151 3.94002 88.1684 3.94002C89.3684 3.94002 90.2751 4.31335 90.8884 5.06002V0.0200195H93.8284V14.18H90.8884V13.18C90.3284 13.9534 89.4351 14.34 88.2084 14.34ZM88.6884 11.84C89.4084 11.84 89.9818 11.5934 90.4084 11.1C90.8484 10.6067 91.0684 9.95335 91.0684 9.14002C91.0684 8.32669 90.8484 7.67335 90.4084 7.18002C89.9818 6.68669 89.4084 6.44002 88.6884 6.44002C87.9818 6.44002 87.4084 6.68669 86.9684 7.18002C86.5418 7.67335 86.3284 8.32669 86.3284 9.14002C86.3284 9.95335 86.5418 10.6067 86.9684 11.1C87.4084 11.5934 87.9818 11.84 88.6884 11.84Z" fill="#111B30"/>
<path d="M79.6614 11.26H82.6814V14.18H79.6614V11.26Z" fill="#3575FC"/>
<path d="M69.0692 14.18V4.1H72.0092V5.44C72.6892 4.44 73.7159 3.94 75.0892 3.94C76.1959 3.94 77.0892 4.27334 77.7692 4.94C78.4492 5.60667 78.7892 6.49334 78.7892 7.6V14.18H75.8692V8.38C75.8692 7.83334 75.7092 7.39334 75.3892 7.06C75.0825 6.71334 74.6625 6.54 74.1292 6.54C72.7159 6.54 72.0092 7.61334 72.0092 9.76V14.18H69.0692Z" fill="#111B30"/>
<path d="M62.5889 3.94C64.0023 3.94 65.1223 4.30667 65.9489 5.04C66.7756 5.76 67.1889 6.81334 67.1889 8.2V14.18H64.3489V12.9C64.0556 13.34 63.6489 13.6933 63.1289 13.96C62.6089 14.2133 62.0689 14.34 61.5089 14.34C60.5356 14.34 59.7356 14.0533 59.1089 13.48C58.4822 12.9067 58.1689 12.1933 58.1689 11.34C58.1689 9.39334 59.6222 8.26667 62.5289 7.96L64.3489 7.78V7.72C64.3489 7.22667 64.1889 6.84 63.8689 6.56C63.5622 6.26667 63.1356 6.12 62.5889 6.12C62.1089 6.12 61.7089 6.26 61.3889 6.54C61.0689 6.82 60.8822 7.2 60.8289 7.68L58.2689 7.2C58.4289 6.22667 58.9156 5.44 59.7289 4.84C60.5422 4.24 61.4956 3.94 62.5889 3.94ZM62.2289 12.24C62.8689 12.24 63.3756 12.02 63.7489 11.58C64.1356 11.14 64.3356 10.6133 64.3489 10V9.98V9.92V9.84L62.4689 10.06C61.9889 10.1133 61.6156 10.2467 61.3489 10.46C61.0956 10.6733 60.9689 10.9333 60.9689 11.24C60.9689 11.5333 61.0756 11.7733 61.2889 11.96C61.5156 12.1467 61.8289 12.24 62.2289 12.24Z" fill="#111B30"/>
<path d="M51.1405 14.34C49.6738 14.34 48.5138 13.8734 47.6605 12.94C46.8205 11.9934 46.4005 10.7267 46.4005 9.14002C46.4005 7.55335 46.8205 6.29335 47.6605 5.36002C48.5005 4.41335 49.6471 3.94002 51.1005 3.94002C52.3005 3.94002 53.2072 4.31335 53.8205 5.06002V0.0200195H56.7605V14.18H53.8205V13.18C53.2605 13.9534 52.3672 14.34 51.1405 14.34ZM51.6205 11.84C52.3405 11.84 52.9138 11.5934 53.3405 11.1C53.7805 10.6067 54.0005 9.95335 54.0005 9.14002C54.0005 8.32669 53.7805 7.67335 53.3405 7.18002C52.9138 6.68669 52.3405 6.44002 51.6205 6.44002C50.9138 6.44002 50.3405 6.68669 49.9005 7.18002C49.4738 7.67335 49.2605 8.32669 49.2605 9.14002C49.2605 9.95335 49.4738 10.6067 49.9005 11.1C50.3405 11.5934 50.9138 11.84 51.6205 11.84Z" fill="#111B30"/>
<path d="M42.1059 4.1H45.0059V13.46C45.0059 14.8067 44.5326 15.8933 43.5859 16.72C42.6393 17.56 41.3926 17.98 39.8459 17.98C38.6593 17.98 37.6259 17.6867 36.7459 17.1C35.8793 16.5133 35.3593 15.7467 35.1859 14.8L37.8659 14.38C37.9326 14.78 38.1526 15.0933 38.5259 15.32C38.8993 15.56 39.3393 15.68 39.8459 15.68C40.5259 15.68 41.0726 15.5 41.4859 15.14C41.9126 14.7933 42.1259 14.34 42.1259 13.78V12.82C41.5793 13.5133 40.7126 13.86 39.5259 13.86C38.0993 13.86 36.9726 13.4133 36.1459 12.52C35.3193 11.6267 34.9059 10.42 34.9059 8.9C34.9059 7.38 35.3126 6.17334 36.1259 5.28C36.9526 4.38667 38.0659 3.94 39.4659 3.94C40.6393 3.94 41.5193 4.28 42.1059 4.96V4.1ZM40.0059 11.36C40.6993 11.36 41.2459 11.14 41.6459 10.7C42.0593 10.2467 42.2659 9.64667 42.2659 8.9C42.2659 8.15334 42.0593 7.56 41.6459 7.12C41.2459 6.66667 40.6993 6.44 40.0059 6.44C39.3259 6.44 38.7793 6.66667 38.3659 7.12C37.9659 7.56 37.7659 8.15334 37.7659 8.9C37.7659 9.64667 37.9659 10.2467 38.3659 10.7C38.7793 11.14 39.3259 11.36 40.0059 11.36Z" fill="#111B30"/>
<path d="M23.8138 14.18V4.1H26.7538V5.44C27.4338 4.44 28.4604 3.94 29.8338 3.94C30.9404 3.94 31.8338 4.27334 32.5138 4.94C33.1938 5.60667 33.5338 6.49334 33.5338 7.6V14.18H30.6138V8.38C30.6138 7.83334 30.4538 7.39334 30.1338 7.06C29.8271 6.71334 29.4071 6.54 28.8738 6.54C27.4604 6.54 26.7538 7.61334 26.7538 9.76V14.18H23.8138Z" fill="#111B30"/>
<path d="M17.1392 14.34C15.5792 14.34 14.2992 13.8533 13.2992 12.88C12.3125 11.8933 11.8192 10.6467 11.8192 9.14C11.8192 7.63334 12.3125 6.39334 13.2992 5.42C14.2992 4.43334 15.5792 3.94 17.1392 3.94C18.6725 3.94 19.9392 4.43334 20.9392 5.42C21.9525 6.39334 22.4592 7.63334 22.4592 9.14C22.4592 10.6467 21.9525 11.8933 20.9392 12.88C19.9392 13.8533 18.6725 14.34 17.1392 14.34ZM17.1392 11.84C17.8459 11.84 18.4192 11.5933 18.8592 11.1C19.2992 10.5933 19.5192 9.94 19.5192 9.14C19.5192 8.34 19.2992 7.69334 18.8592 7.2C18.4192 6.69334 17.8459 6.44 17.1392 6.44C16.4192 6.44 15.8392 6.69334 15.3992 7.2C14.9592 7.69334 14.7392 8.34 14.7392 9.14C14.7392 9.94 14.9592 10.5933 15.3992 11.1C15.8392 11.5933 16.4192 11.84 17.1392 11.84Z" fill="#111B30"/>
<path d="M0.727036 14.18V4.1H3.66704V5.44C4.34704 4.44 5.3737 3.94 6.74704 3.94C7.8537 3.94 8.74704 4.27334 9.42704 4.94C10.107 5.60667 10.447 6.49334 10.447 7.6V14.18H7.52704V8.38C7.52704 7.83334 7.36704 7.39334 7.04704 7.06C6.74037 6.71334 6.32037 6.54 5.78703 6.54C4.3737 6.54 3.66704 7.61334 3.66704 9.76V14.18H0.727036Z" fill="#111B30"/>
</svg>
