<svg width="170" height="170" viewBox="0 0 170 170" fill="none" xmlns="http://www.w3.org/2000/svg">
<path opacity="0.3" fillRule="evenodd" clipRule="evenodd" d="M99.0279 70.1657C118.537 70.1657 134.353 54.5534 134.353 35.2943C134.353 16.0354 118.537 0.422089 99.0279 0.422089C79.5192 0.422089 63.7036 16.0354 63.7036 35.2943C63.7036 54.5534 79.5192 70.1657 99.0279 70.1657Z" fill="#BFDEFF"/>
<path opacity="0.3" fillRule="evenodd" clipRule="evenodd" d="M28.379 144.257C28.379 105.279 60.0102 73.6805 99.0287 73.6805C138.046 73.6805 169.678 105.279 169.678 144.257V167.706C169.678 168.202 169.481 168.679 169.128 169.03C168.777 169.38 168.301 169.578 167.803 169.578H30.2532C29.7561 169.578 29.2794 169.38 28.928 169.03C28.5765 168.679 28.379 168.202 28.379 167.706V144.257Z" fill="#BFDEFF"/>
<path fillRule="evenodd" clipRule="evenodd" d="M75.4884 70.1657C94.9976 70.1657 110.813 54.5533 110.813 35.2934C110.813 16.0345 94.9976 0.422089 75.4884 0.422089C55.9792 0.422089 40.1639 16.0345 40.1639 35.2934C40.1639 54.5533 55.9792 70.1657 75.4884 70.1657Z" fill="#BFDEFF"/>
<path fillRule="evenodd" clipRule="evenodd" d="M1.36475 143.89C1.36475 105.115 32.3827 73.6805 70.6444 73.6805H73.384C111.645 73.6805 142.663 105.115 142.663 143.89V167.706C142.663 168.202 142.469 168.679 142.123 169.03C141.776 169.38 141.306 169.578 140.817 169.578H3.21221C2.72221 169.578 2.25231 169.38 1.90587 169.03C1.55942 168.679 1.36475 168.202 1.36475 167.706V143.89Z" fill="#BFDEFF"/>
</svg>
