<svg width="740" height="489" viewBox="0 0 740 489" fill="none" xmlns="http://www.w3.org/2000/svg">
<path d="M709.8 313.473L709.78 313.493C709.593 313.286 709.402 313.083 709.2 312.886C703.892 307.705 695.288 307.705 689.98 312.886C684.673 318.067 684.673 326.468 689.98 331.65C690.182 331.847 690.39 332.034 690.602 332.216L690.581 332.236L709.8 351L729.02 332.236C734.327 327.055 734.327 318.654 729.02 313.473C723.712 308.291 715.108 308.291 709.8 313.473Z" fill="#FF6584"/>
<rect x="21" y="459" width="718" height="30" rx="15" fill="#F2F2F2"/>
<rect x="251" y="413" width="488" height="30" rx="15" fill="#F2F2F2"/>
<rect x="410" y="367" width="329" height="30" rx="15" fill="#F2F2F2"/>
<path d="M50.0762 0C37.2703 0 26.889 10.3813 26.889 23.1872V263.5L28.9329 246.028V161.135C28.9329 73.2711 100.16 2.04382 188.024 2.04382L710 1.67219V0L50.0762 0Z" fill="#E6E6E6"/>
<path d="M106.562 77.1012C110.704 77.1012 114.062 73.7433 114.062 69.6012C114.062 65.4591 110.704 62.1012 106.562 62.1012C102.42 62.1012 99.0621 65.4591 99.0621 69.6012C99.0621 73.7433 102.42 77.1012 106.562 77.1012Z" fill="#3F3D56"/>
<path d="M136.416 77.1012C140.558 77.1012 143.916 73.7433 143.916 69.6012C143.916 65.4591 140.558 62.1012 136.416 62.1012C132.274 62.1012 128.916 65.4591 128.916 69.6012C128.916 73.7433 132.274 77.1012 136.416 77.1012Z" fill="#3F3D56"/>
<path d="M166.27 77.1012C170.412 77.1012 173.77 73.7433 173.77 69.6012C173.77 65.4591 170.412 62.1012 166.27 62.1012C162.128 62.1012 158.77 65.4591 158.77 69.6012C158.77 73.7433 162.128 77.1012 166.27 77.1012Z" fill="#3F3D56"/>
<path d="M230.336 171.828C214.779 199.291 197.612 225.813 178.925 251.256H151.929C169.611 229.748 187.306 208.239 205.014 186.73C210.094 180.537 215.607 174.049 223.228 171.533L230.336 171.828Z" fill="#3F3D56"/>
<path d="M194.46 167.424C191.644 170.353 188.947 173.4 186.407 176.566C180.815 183.29 175.302 190.073 169.769 196.836C166.323 201.043 162.877 205.251 159.471 209.458C158.389 208.764 157.362 207.989 156.399 207.138C150.958 202.423 147.584 195.767 146.998 188.598C146.413 181.428 148.663 174.314 153.267 168.782C157.871 163.249 164.462 159.736 171.629 158.998C178.795 158.259 185.966 160.352 191.605 164.829C192.621 165.62 193.576 166.488 194.46 167.424Z" fill="#6366F1"/>
<path d="M296.806 164.229V168.311L294.98 167.643L269.286 158.264C260.917 155.215 252.568 151.731 243.926 149.533C236.407 147.385 228.422 147.487 220.96 149.826C214.309 152.283 208.223 156.056 203.066 160.917C200.784 163.024 198.572 165.181 196.432 167.42C195.732 168.159 195.032 168.899 194.342 169.638C192.273 171.887 190.275 174.186 188.378 176.566C182.788 183.291 177.27 190.078 171.742 196.833C168.293 201.047 164.844 205.25 161.435 209.454C150.054 223.36 138.74 237.294 127.494 251.255C125.979 251.238 124.471 251.047 123 250.687C134.473 236.457 146 222.263 157.581 208.107C157.844 207.782 158.108 207.458 158.372 207.134C159.731 205.443 161.121 203.741 162.5 202.05C168.272 194.99 174.048 187.937 179.826 180.891C184.026 175.766 188.195 170.621 192.719 165.759C192.993 165.445 193.277 165.141 193.571 164.827C194.008 164.361 194.444 163.905 194.89 163.429C204.72 153.29 216.984 144.327 231.672 144.083C240.315 143.952 248.663 146.687 256.697 149.573C265.35 152.703 273.972 155.883 282.615 159.044L296.806 164.229Z" fill="#3F3D56"/>
<path d="M306.449 263H120.551C108.668 263 99 253.332 99 241.449V150.551C99 138.668 108.668 129 120.551 129H306.449C318.332 129 328 138.668 328 150.551V241.449C328 253.332 318.332 263 306.449 263ZM120.551 131C109.771 131 101 139.771 101 150.551V241.449C101 252.229 109.771 261 120.551 261H306.449C317.229 261 326 252.229 326 241.449V150.551C326 139.771 317.229 131 306.449 131H120.551Z" fill="#E6E6E6"/>
<path d="M562.153 189.781H356.578C353.243 189.778 350.046 188.453 347.688 186.099C345.33 183.744 344.004 180.552 344 177.223V149.559C344.004 146.229 345.33 143.037 347.688 140.683C350.046 138.328 353.243 137.004 356.578 137H562.153C565.488 137.004 568.685 138.328 571.043 140.683C573.401 143.037 574.727 146.229 574.731 149.559V177.223C574.727 180.552 573.401 183.744 571.043 186.099C568.685 188.453 565.488 189.778 562.153 189.781Z" fill="#F2F2F2"/>
<path d="M726.485 189.781H520.909C517.575 189.778 514.378 188.453 512.02 186.099C509.662 183.744 508.336 180.552 508.332 177.223V149.559C508.336 146.229 509.662 143.037 512.02 140.683C514.378 138.328 517.575 137.004 520.909 137H726.485C729.82 137.004 733.017 138.328 735.375 140.683C737.733 143.037 739.059 146.229 739.063 149.559V177.223C739.059 180.552 737.733 183.744 735.375 186.099C733.017 188.453 729.82 189.778 726.485 189.781Z" fill="#E6E6E6"/>
<path d="M648.673 158.656H588.102C587.383 158.656 586.694 158.371 586.186 157.864C585.678 157.356 585.392 156.668 585.392 155.951C585.392 155.233 585.678 154.545 586.186 154.037C586.694 153.53 587.383 153.245 588.102 153.245H648.673C649.392 153.245 650.081 153.53 650.589 154.037C651.097 154.545 651.383 155.233 651.383 155.951C651.383 156.668 651.097 157.356 650.589 157.864C650.081 158.371 649.392 158.656 648.673 158.656Z" fill="white"/>
<path d="M706.93 173.536H587.424C586.706 173.536 586.016 173.251 585.508 172.744C585 172.237 584.715 171.549 584.715 170.831C584.715 170.113 585 169.425 585.508 168.918C586.016 168.41 586.706 168.125 587.424 168.125H706.93C707.648 168.125 708.338 168.41 708.846 168.918C709.354 169.425 709.639 170.113 709.639 170.831C709.639 171.549 709.354 172.237 708.846 172.744C708.338 173.251 707.648 173.536 706.93 173.536Z" fill="white"/>
<path d="M555.922 181.531C565.956 181.531 574.09 173.409 574.09 163.391C574.09 153.372 565.956 145.251 555.922 145.251C545.889 145.251 537.755 153.372 537.755 163.391C537.755 173.409 545.889 181.531 555.922 181.531Z" fill="white"/>
<path d="M499.06 255H352.94C350.57 254.996 348.297 253.666 346.621 251.302C344.945 248.938 344.003 245.733 344 242.389V214.611C344.003 211.267 344.945 208.062 346.621 205.698C348.297 203.334 350.57 202.004 352.94 202H499.06C501.43 202.004 503.703 203.334 505.379 205.698C507.055 208.062 507.997 211.267 508 214.611V242.389C507.997 245.733 507.055 248.938 505.379 251.302C503.703 253.666 501.43 254.996 499.06 255Z" fill="#F2F2F2"/>
<path d="M662.098 255H483.902C481.012 254.996 478.241 253.666 476.197 251.302C474.153 248.938 473.003 245.733 473 242.389V214.611C473.003 211.267 474.153 208.062 476.197 205.698C478.241 203.334 481.012 202.004 483.902 202H662.098C664.988 202.004 667.759 203.334 669.803 205.698C671.847 208.062 672.997 211.267 673 214.611V242.389C672.997 245.733 671.847 248.938 669.803 251.302C667.759 253.666 664.988 254.996 662.098 255Z" fill="#E6E6E6"/>
<path d="M597.673 223.656H537.102C536.383 223.656 535.694 223.371 535.186 222.864C534.678 222.356 534.392 221.668 534.392 220.951C534.392 220.233 534.678 219.545 535.186 219.037C535.694 218.53 536.383 218.245 537.102 218.245H597.673C598.392 218.245 599.081 218.53 599.589 219.037C600.097 219.545 600.383 220.233 600.383 220.951C600.383 221.668 600.097 222.356 599.589 222.864C599.081 223.371 598.392 223.656 597.673 223.656Z" fill="white"/>
<path d="M655.93 238.536H536.424C535.706 238.536 535.016 238.251 534.508 237.744C534 237.237 533.715 236.549 533.715 235.831C533.715 235.113 534 234.425 534.508 233.918C535.016 233.41 535.706 233.125 536.424 233.125H655.93C656.648 233.125 657.338 233.41 657.846 233.918C658.354 234.425 658.639 235.113 658.639 235.831C658.639 236.549 658.354 237.237 657.846 237.744C657.338 238.251 656.648 238.536 655.93 238.536Z" fill="white"/>
<path d="M504.922 246.531C514.956 246.531 523.09 238.409 523.09 228.391C523.09 218.372 514.956 210.251 504.922 210.251C494.889 210.251 486.755 218.372 486.755 228.391C486.755 238.409 494.889 246.531 504.922 246.531Z" fill="white"/>
<path d="M107.213 366.916C105.359 366.051 103.24 365.943 101.307 366.614C99.3741 367.285 97.7797 368.682 96.8631 370.509C96.6826 370.883 96.5335 371.272 96.4172 371.671L69.0599 373.303L65.0053 387.455L102.239 381.173C103.933 381.527 105.696 381.31 107.254 380.558C108.811 379.806 110.075 378.56 110.849 377.014C111.281 376.131 111.534 375.171 111.594 374.19C111.654 373.209 111.52 372.225 111.2 371.296C110.88 370.366 110.379 369.509 109.727 368.772C109.075 368.036 108.284 367.435 107.399 367.004C107.337 366.974 107.275 366.945 107.213 366.916Z" fill="#FFB6B6"/>
<path d="M46.8267 297.11C45.0239 296.374 43.0835 296.033 41.1373 296.112C39.1911 296.192 37.2848 296.688 35.5481 297.569C33.8113 298.449 32.2849 299.693 31.0725 301.215C29.8601 302.737 28.9903 304.502 28.5221 306.39L21.0007 336.718L22.4155 389.776C22.4155 389.776 61.6746 397.298 68.2652 392.463C74.8559 387.628 74.237 384.029 74.8559 387.628C75.4747 391.227 78.3035 392.737 78.3427 391.306C78.382 389.874 78.702 390.118 80.3444 389.687C81.9867 389.256 89.2355 386.588 89.2355 386.588L89.5601 371.461C89.5601 371.461 77.5765 366.925 74.6691 368.278C71.7618 369.631 75.2879 371.877 71.7618 369.631C68.2357 367.386 67.8503 360.297 67.2474 366.685C66.6445 373.074 64.8795 374.263 62.2358 371.423C59.5922 368.582 47.344 370.397 47.344 370.397L55.138 311.418C55.53 308.451 54.9271 305.438 53.4235 302.85C51.9199 300.262 49.6002 298.243 46.8267 297.11Z" fill="#6C63FF"/>
<path d="M311.213 454.452L311.626 443.28L268.664 436.373L268.055 452.862L311.213 454.452Z" fill="#FFB6B6"/>
<path d="M303.414 457.816L303.007 439.928L310.665 440.21L323.03 423.673C323.64 422.856 324.497 422.256 325.473 421.959C326.45 421.662 327.496 421.685 328.458 422.024C329.421 422.363 330.25 423.001 330.824 423.843C331.398 424.686 331.688 425.69 331.65 426.708L330.865 447.958L323.154 451.342L330.677 453.051L330.381 461.063L303.414 457.816Z" fill="#2F2E41"/>
<path d="M69.4225 480.072L205.496 464.272C205.496 464.272 264.258 467.661 278.045 458.706L292.583 456.873L293.371 435.55C293.371 435.55 284.481 435.615 279.369 433.237C274.258 430.859 277.81 427.95 272.937 430.811C268.064 433.672 268.578 434.016 264.81 432.701C261.042 431.386 88.2551 424.334 88.2551 424.334L69.4225 480.072Z" fill="#2F2E41"/>
<path d="M248.732 470.819L256.644 462.908L229.854 428.671L218.177 440.345L248.732 470.819Z" fill="#FFB6B6"/>
<path d="M240.724 467.989L252.61 454.599L258.032 460.006L278.36 456.28C279.364 456.096 280.401 456.237 281.319 456.683C282.237 457.128 282.988 457.856 283.463 458.758C283.938 459.66 284.111 460.69 283.958 461.698C283.805 462.706 283.334 463.638 282.612 464.359L267.562 479.404L259.605 476.648L263.955 483.01L258.281 488.682L240.724 467.989Z" fill="#2F2E41"/>
<path d="M15.7375 405.661L17.0903 437.06C18.6828 474.023 59.4507 496.394 91.0631 477.095C91.6457 476.739 92.2303 476.371 92.8168 475.99C92.8168 475.99 104.801 472.776 104.437 467.687C104.074 462.598 107.001 460.121 109.592 461.509C112.183 462.896 146.106 414.825 146.106 414.825C146.106 414.825 216.588 449.93 232.137 458.194L248.543 453.731C248.543 453.731 254.718 456.642 252.494 452.431C250.269 448.22 249.871 450.237 249.187 445.648C248.504 441.06 246.756 435.371 245.696 435.61C244.636 435.849 158.502 375.654 158.502 375.654C158.502 375.654 144.469 361.474 127.063 370.836C126.7 372.212 127.01 372.259 127.01 372.259L69.5099 419.042L61.3852 403.636L15.7375 405.661Z" fill="#2F2E41"/>
<path d="M54.3846 290.293L29.7311 278.756L22.3502 291.58C22.3502 291.58 2.52712 319.825 2.23957 340.202C1.95202 360.579 5.47007 366.639 5.47007 366.639C5.47007 366.639 -3.07691 373.019 1.19657 376.919C5.47005 380.819 14.931 382.502 7.66454 384.192C0.398082 385.883 2.23957 403 10.3547 406.038C18.4699 409.077 62.0525 409.05 62.0525 409.05C61.6607 407.723 61.6318 406.316 61.9689 404.974C62.306 403.632 62.9968 402.404 63.9694 401.419C67.3481 398.037 70.3913 400.464 67.3481 395.199C64.3049 389.935 59.2329 392.973 63.2905 385.883C67.3481 378.793 67.3466 376.674 67.3466 376.674C67.3466 376.674 75.6183 360.956 63.1591 343.903C62.3996 342.864 63.0382 342.824 63.0382 342.824L52.9775 309.161L54.3846 290.293Z" fill="#6366F1"/>
<path d="M14.6542 241.784C14.8627 246.984 11.5809 254.351 9.96476 258.793C8.23693 263.542 15.7258 269.846 20.5192 271.227C20.7686 269.581 21.5906 268.076 22.8407 266.976C22.4952 268.544 22.4651 270.165 22.7522 271.745L63.2751 280.956C70.5652 272.527 77.8953 260.408 76.2964 245.793C76.6793 243.017 76.2326 240.191 75.0125 237.668C73.7923 235.145 71.8531 233.039 69.4381 231.613L48.9519 219.529C40.238 217.548 29.2645 216.352 22.9706 221.736C20.1585 224.234 17.9495 227.335 16.5092 230.807C15.0689 234.279 14.4347 238.032 14.6542 241.784Z" fill="#2F2E41"/>
<path d="M50.8756 276.503C63.761 276.503 74.2067 266.073 74.2067 253.207C74.2067 240.341 63.761 229.911 50.8756 229.911C37.9903 229.911 27.5446 240.341 27.5446 253.207C27.5446 266.073 37.9903 276.503 50.8756 276.503Z" fill="#FFB6B6"/>
<path d="M23.5432 240.761L22.4173 245.699L42.1002 250.173C42.1176 249.175 42.3417 248.19 42.7582 247.282C43.1747 246.374 43.7747 245.562 44.5206 244.896C44.096 246.832 44.1445 248.842 44.6619 250.756C55.2769 256.703 64.8445 258.81 73.4236 257.293C74.586 257.558 75.8058 257.35 76.8148 256.716C77.8237 256.082 78.5392 255.074 78.8039 253.914C82.2557 238.774 73.2124 223.3 58.1242 219.542C54.4567 218.627 50.643 218.451 46.9068 219.027C43.1705 219.602 39.587 220.916 36.3661 222.893C33.1453 224.869 30.352 227.467 28.15 230.536C25.9481 233.604 24.3819 237.08 23.5432 240.761Z" fill="#2F2E41"/>
<path d="M35.0509 208.182C37.6463 207.619 40.3929 207.755 42.7395 206L41.2006 209.527C45.4673 208.36 50.0158 208.814 53.967 210.8C55.1419 211.326 56.1438 212.173 56.8572 213.244C57.2406 213.89 57.4738 214.614 57.5396 215.362C57.6054 216.111 57.5021 216.864 57.2374 217.568C56.9852 218.171 56.6097 218.715 56.1349 219.165C55.6602 219.615 55.0966 219.962 54.4802 220.182C53.3878 220.51 52.2433 220.63 51.1065 220.535C46.3164 220.423 41.5264 220.312 36.7363 220.201C34.9109 220.314 33.0867 219.96 31.4365 219.172C30.5592 218.631 29.8592 217.846 29.4224 216.914C28.9857 215.981 28.8311 214.941 28.9777 213.922C29.4346 210.716 32.4556 208.744 35.0509 208.182Z" fill="#2F2E41"/>
<path d="M161.612 390.761C161.556 390.694 161.492 390.636 161.421 390.586C161.246 390.384 161.034 390.218 160.796 390.097L159.088 389.185L147.754 376.62C147.098 376.279 146.335 376.206 145.626 376.417L145.597 376.426L140.741 377.925L136.566 379.219L130.733 381.024L91.0029 393.308L64.8875 401.381C64.1815 401.605 63.5914 402.096 63.2443 402.749C62.8972 403.402 62.8209 404.165 63.0317 404.874C63.1545 405.264 63.3576 405.624 63.628 405.932L64.459 406.855L66.2021 408.794L70.2405 417.151L71.361 418.399C71.7181 418.797 72.1811 419.084 72.696 419.229C73.2108 419.373 73.7562 419.368 74.2682 419.214L160.304 395.326C160.75 395.181 161.155 394.929 161.481 394.592C161.808 394.255 162.046 393.842 162.175 393.391C162.305 392.94 162.321 392.464 162.222 392.006C162.124 391.547 161.914 391.12 161.612 390.761Z" fill="#CCCCCC"/>
<path d="M156.504 266.477L154.838 266.747C154.381 266.822 153.973 267.075 153.702 267.45L152.968 268.475L146.347 285.007C146.077 285.385 145.969 285.854 146.046 286.312L146.822 291.022L143.89 375.095C143.964 375.53 144.197 375.922 144.545 376.193L157.401 393.364L157.701 393.602L158.348 394.108C158.68 394.364 159.092 394.495 159.512 394.477L160.604 394.425C160.852 394.413 161.095 394.349 161.316 394.236C161.537 394.123 161.732 393.965 161.888 393.772C162.045 393.58 162.158 393.357 162.221 393.118C162.284 392.878 162.295 392.628 162.252 392.384L158.523 267.915C158.447 267.458 158.193 267.05 157.816 266.78C157.439 266.51 156.97 266.4 156.512 266.476L156.504 266.477Z" fill="#CCCCCC"/>
<path d="M153.714 273.01L147.849 290.849L145.58 362.108L154.709 370.211L153.714 273.01Z" fill="#6366F1"/>
<path d="M108.357 381.707C106.503 380.842 104.384 380.733 102.452 381.404C100.519 382.075 98.9243 383.473 98.0077 385.3C97.8272 385.674 97.6781 386.062 97.5618 386.461L70.2044 388.093L66.1499 402.246L103.384 395.964C105.078 396.317 106.841 396.101 108.398 395.348C109.956 394.596 111.22 393.35 111.993 391.805C112.865 390.02 112.992 387.963 112.345 386.086C111.698 384.209 110.33 382.665 108.543 381.794C108.482 381.764 108.42 381.735 108.357 381.707Z" fill="#FFB6B6"/>
<path d="M47.9712 311.9C46.1685 311.164 44.2281 310.824 42.2819 310.903C40.3357 310.982 38.4294 311.479 36.6927 312.359C34.9559 313.24 33.4294 314.483 32.217 316.006C31.0047 317.528 30.1348 319.293 29.6666 321.181L22.1453 351.509L23.5601 404.566C23.5601 404.566 62.8192 412.088 69.4098 407.253C76.0004 402.418 75.3816 398.819 76.0005 402.418C76.6193 406.018 79.4481 407.528 79.4873 406.096C79.5266 404.664 79.8466 404.909 81.4889 404.477C83.1313 404.046 90.38 401.379 90.38 401.379L90.7046 386.251C90.7046 386.251 78.7211 381.715 75.8137 383.068C72.9064 384.422 76.4325 386.668 72.9064 384.422C69.3803 382.176 68.9949 375.088 68.392 381.476C67.7891 387.864 66.0241 389.054 63.3804 386.213C60.7367 383.372 48.4885 385.187 48.4885 385.187L56.2826 326.208C56.6746 323.241 56.0717 320.229 54.5681 317.64C53.0645 315.052 50.7448 313.034 47.9712 311.9Z" fill="#6366F1"/>
<path d="M236.883 296.703C237.028 293.87 238.743 291.655 240.714 291.755C242.685 291.856 244.166 294.235 244.021 297.069C243.876 299.902 242.16 302.117 240.189 302.017C238.218 301.916 236.738 299.537 236.883 296.703Z" fill="#E6E6E6"/>
<path d="M230.518 263.725C230.663 260.891 232.378 258.676 234.349 258.777C236.32 258.877 237.801 261.256 237.656 264.09C237.511 266.923 235.796 269.139 233.824 269.038C231.853 268.937 230.373 266.558 230.518 263.725Z" fill="#3F3D56"/>
<path d="M210.791 308.341C210.936 305.507 212.651 303.292 214.622 303.393C216.594 303.494 218.074 305.872 217.929 308.706C217.784 311.54 216.069 313.755 214.098 313.654C212.126 313.553 210.646 311.175 210.791 308.341Z" fill="#FF6584"/>
<path d="M201.898 321.418C201.791 320.175 203.153 319.043 204.94 318.889C206.726 318.735 208.261 319.618 208.368 320.861C208.475 322.104 207.113 323.236 205.327 323.39C203.54 323.543 202.005 322.661 201.898 321.418Z" fill="#E6E6E6"/>
<path d="M181.8 328.248C181.693 327.005 183.054 325.873 184.841 325.719C186.627 325.565 188.162 326.448 188.269 327.691C188.376 328.934 187.015 330.066 185.228 330.22C183.442 330.373 181.907 329.49 181.8 328.248Z" fill="#3F3D56"/>
<path d="M214.408 286.72C214.301 285.477 215.663 284.345 217.45 284.192C219.236 284.038 220.771 284.921 220.878 286.164C220.985 287.406 219.623 288.539 217.837 288.692C216.05 288.846 214.515 287.963 214.408 286.72Z" fill="#E6E6E6"/>
<path d="M223.945 302.052C223.838 300.809 225.2 299.677 226.986 299.523C228.773 299.37 230.308 300.252 230.415 301.495C230.522 302.738 229.16 303.87 227.374 304.024C225.587 304.178 224.052 303.295 223.945 302.052Z" fill="#FF6584"/>
<path d="M236.691 278.273C236.584 277.03 237.946 275.898 239.732 275.744C241.519 275.59 243.054 276.473 243.161 277.716C243.267 278.959 241.906 280.091 240.119 280.245C238.333 280.398 236.798 279.515 236.691 278.273Z" fill="#3F3D56"/>
</svg>
