<svg width="757" height="489" viewBox="0 0 757 489" fill="none" xmlns="http://www.w3.org/2000/svg">
<path d="M726.8 313.473L726.78 313.493C726.593 313.286 726.402 313.083 726.2 312.886C720.892 307.705 712.288 307.705 706.98 312.886C701.673 318.067 701.673 326.468 706.98 331.65C707.182 331.847 707.39 332.034 707.602 332.216L707.581 332.236L726.8 351L746.02 332.236C751.327 327.055 751.327 318.654 746.02 313.473C740.712 308.291 732.108 308.291 726.8 313.473Z" fill="#FF6584"/>
<rect x="20" y="459" width="736" height="30" rx="15" fill="#F2F2F2"/>
<rect x="268" y="413" width="488" height="30" rx="15" fill="#F2F2F2"/>
<rect x="427" y="367" width="329" height="30" rx="15" fill="#F2F2F2"/>
<path d="M67.0762 0C54.2703 0 43.889 10.3813 43.889 23.1872V263.5L45.9329 246.028V161.135C45.9329 73.2711 117.16 2.04382 205.024 2.04382L690.5 1.67219L689 0H67.0762Z" fill="#E6E6E6"/>
<path d="M123.562 77.1012C127.704 77.1012 131.062 73.7433 131.062 69.6012C131.062 65.4591 127.704 62.1012 123.562 62.1012C119.42 62.1012 116.062 65.4591 116.062 69.6012C116.062 73.7433 119.42 77.1012 123.562 77.1012Z" fill="#3F3D56"/>
<path d="M153.416 77.1012C157.558 77.1012 160.916 73.7433 160.916 69.6012C160.916 65.4591 157.558 62.1012 153.416 62.1012C149.274 62.1012 145.916 65.4591 145.916 69.6012C145.916 73.7433 149.274 77.1012 153.416 77.1012Z" fill="#3F3D56"/>
<path d="M183.27 77.1012C187.412 77.1012 190.77 73.7433 190.77 69.6012C190.77 65.4591 187.412 62.1012 183.27 62.1012C179.128 62.1012 175.77 65.4591 175.77 69.6012C175.77 73.7433 179.128 77.1012 183.27 77.1012Z" fill="#3F3D56"/>
<path d="M247.336 171.828C231.779 199.291 214.612 225.813 195.925 251.256H168.929C186.611 229.748 204.306 208.239 222.014 186.73C227.094 180.537 232.607 174.049 240.228 171.533L247.336 171.828Z" fill="#3F3D56"/>
<path d="M211.46 167.424C208.644 170.353 205.947 173.4 203.407 176.566C197.815 183.29 192.302 190.073 186.769 196.836C183.323 201.043 179.877 205.251 176.471 209.458C175.389 208.764 174.362 207.989 173.399 207.138C167.958 202.423 164.584 195.767 163.998 188.598C163.413 181.428 165.663 174.314 170.267 168.782C174.871 163.249 181.462 159.736 188.629 158.998C195.795 158.259 202.966 160.352 208.605 164.829C209.621 165.62 210.576 166.488 211.46 167.424Z" fill="#6366F1"/>
<path d="M313.806 164.229V168.311L311.98 167.643L286.286 158.264C277.917 155.215 269.568 151.731 260.926 149.533C253.407 147.385 245.422 147.487 237.96 149.826C231.309 152.283 225.223 156.056 220.066 160.917C217.784 163.024 215.572 165.181 213.432 167.42C212.732 168.159 212.032 168.899 211.342 169.638C209.273 171.887 207.275 174.186 205.378 176.566C199.788 183.291 194.27 190.078 188.742 196.833C185.293 201.047 181.844 205.25 178.435 209.454C167.054 223.36 155.74 237.294 144.494 251.255C142.979 251.238 141.471 251.047 140 250.687C151.473 236.457 163 222.263 174.581 208.107C174.844 207.782 175.108 207.458 175.372 207.134C176.731 205.443 178.121 203.741 179.5 202.05C185.272 194.99 191.048 187.937 196.826 180.891C201.026 175.766 205.195 170.621 209.719 165.759C209.993 165.445 210.277 165.141 210.571 164.827C211.008 164.361 211.444 163.905 211.89 163.429C221.72 153.29 233.984 144.327 248.672 144.083C257.315 143.952 265.663 146.687 273.697 149.573C282.35 152.703 290.972 155.883 299.615 159.044L313.806 164.229Z" fill="#3F3D56"/>
<path d="M323.449 263H137.551C125.668 263 116 253.332 116 241.449V150.551C116 138.668 125.668 129 137.551 129H323.449C335.332 129 345 138.668 345 150.551V241.449C345 253.332 335.332 263 323.449 263ZM137.551 131C126.771 131 118 139.771 118 150.551V241.449C118 252.229 126.771 261 137.551 261H323.449C334.229 261 343 252.229 343 241.449V150.551C343 139.771 334.229 131 323.449 131H137.551Z" fill="#E6E6E6"/>
<path d="M579.153 189.781H373.578C370.243 189.778 367.046 188.453 364.688 186.099C362.33 183.744 361.004 180.552 361 177.223V149.559C361.004 146.229 362.33 143.037 364.688 140.683C367.046 138.328 370.243 137.004 373.578 137H579.153C582.488 137.004 585.685 138.328 588.043 140.683C590.401 143.037 591.727 146.229 591.731 149.559V177.223C591.727 180.552 590.401 183.744 588.043 186.099C585.685 188.453 582.488 189.778 579.153 189.781Z" fill="#F2F2F2"/>
<path d="M743.485 189.781H537.909C534.575 189.778 531.378 188.453 529.02 186.099C526.662 183.744 525.336 180.552 525.332 177.223V149.559C525.336 146.229 526.662 143.037 529.02 140.683C531.378 138.328 534.575 137.004 537.909 137H743.485C746.82 137.004 750.017 138.328 752.375 140.683C754.733 143.037 756.059 146.229 756.063 149.559V177.223C756.059 180.552 754.733 183.744 752.375 186.099C750.017 188.453 746.82 189.778 743.485 189.781Z" fill="#E6E6E6"/>
<path d="M665.673 158.656H605.102C604.383 158.656 603.694 158.371 603.186 157.864C602.678 157.356 602.392 156.668 602.392 155.951C602.392 155.233 602.678 154.545 603.186 154.037C603.694 153.53 604.383 153.245 605.102 153.245H665.673C666.392 153.245 667.081 153.53 667.589 154.037C668.097 154.545 668.383 155.233 668.383 155.951C668.383 156.668 668.097 157.356 667.589 157.864C667.081 158.371 666.392 158.656 665.673 158.656Z" fill="white"/>
<path d="M723.93 173.536H604.424C603.706 173.536 603.016 173.251 602.508 172.744C602 172.237 601.715 171.549 601.715 170.831C601.715 170.113 602 169.425 602.508 168.918C603.016 168.41 603.706 168.125 604.424 168.125H723.93C724.648 168.125 725.338 168.41 725.846 168.918C726.354 169.425 726.639 170.113 726.639 170.831C726.639 171.549 726.354 172.237 725.846 172.744C725.338 173.251 724.648 173.536 723.93 173.536Z" fill="white"/>
<path d="M572.922 181.531C582.956 181.531 591.09 173.409 591.09 163.391C591.09 153.372 582.956 145.251 572.922 145.251C562.889 145.251 554.755 153.372 554.755 163.391C554.755 173.409 562.889 181.531 572.922 181.531Z" fill="white"/>
<path d="M516.06 255H369.94C367.57 254.996 365.297 253.666 363.621 251.302C361.945 248.938 361.003 245.733 361 242.389V214.611C361.003 211.267 361.945 208.062 363.621 205.698C365.297 203.334 367.57 202.004 369.94 202H516.06C518.43 202.004 520.703 203.334 522.379 205.698C524.055 208.062 524.997 211.267 525 214.611V242.389C524.997 245.733 524.055 248.938 522.379 251.302C520.703 253.666 518.43 254.996 516.06 255Z" fill="#F2F2F2"/>
<path d="M679.098 255H500.902C498.012 254.996 495.241 253.666 493.197 251.302C491.153 248.938 490.003 245.733 490 242.389V214.611C490.003 211.267 491.153 208.062 493.197 205.698C495.241 203.334 498.012 202.004 500.902 202H679.098C681.988 202.004 684.759 203.334 686.803 205.698C688.847 208.062 689.997 211.267 690 214.611V242.389C689.997 245.733 688.847 248.938 686.803 251.302C684.759 253.666 681.988 254.996 679.098 255Z" fill="#E6E6E6"/>
<path d="M614.673 223.656H554.102C553.383 223.656 552.694 223.371 552.186 222.864C551.678 222.356 551.392 221.668 551.392 220.951C551.392 220.233 551.678 219.545 552.186 219.037C552.694 218.53 553.383 218.245 554.102 218.245H614.673C615.392 218.245 616.081 218.53 616.589 219.037C617.097 219.545 617.383 220.233 617.383 220.951C617.383 221.668 617.097 222.356 616.589 222.864C616.081 223.371 615.392 223.656 614.673 223.656Z" fill="white"/>
<path d="M672.93 238.536H553.424C552.706 238.536 552.016 238.251 551.508 237.744C551 237.237 550.715 236.549 550.715 235.831C550.715 235.113 551 234.425 551.508 233.918C552.016 233.41 552.706 233.125 553.424 233.125H672.93C673.648 233.125 674.338 233.41 674.846 233.918C675.354 234.425 675.639 235.113 675.639 235.831C675.639 236.549 675.354 237.237 674.846 237.744C674.338 238.251 673.648 238.536 672.93 238.536Z" fill="white"/>
<path d="M521.922 246.531C531.956 246.531 540.09 238.409 540.09 228.391C540.09 218.372 531.956 210.251 521.922 210.251C511.889 210.251 503.755 218.372 503.755 228.391C503.755 238.409 511.889 246.531 521.922 246.531Z" fill="white"/>
<path d="M107.213 366.916C105.359 366.051 103.24 365.943 101.307 366.614C99.3741 367.285 97.7797 368.682 96.8631 370.509C96.6826 370.883 96.5335 371.272 96.4172 371.671L69.0599 373.303L65.0053 387.455L102.239 381.173C103.933 381.527 105.696 381.31 107.254 380.558C108.811 379.806 110.075 378.56 110.849 377.014C111.281 376.131 111.534 375.171 111.594 374.19C111.654 373.209 111.52 372.225 111.2 371.296C110.88 370.366 110.379 369.509 109.727 368.772C109.075 368.036 108.284 367.435 107.399 367.004C107.337 366.974 107.275 366.945 107.213 366.916Z" fill="#FFB6B6"/>
<path d="M46.8267 297.11C45.0239 296.374 43.0835 296.033 41.1373 296.112C39.1911 296.192 37.2848 296.688 35.5481 297.569C33.8113 298.449 32.2849 299.693 31.0725 301.215C29.8601 302.737 28.9903 304.502 28.5221 306.39L21.0007 336.718L22.4155 389.776C22.4155 389.776 61.6746 397.298 68.2652 392.463C74.8559 387.628 74.237 384.029 74.8559 387.628C75.4747 391.227 78.3035 392.737 78.3427 391.306C78.382 389.874 78.702 390.118 80.3444 389.687C81.9867 389.256 89.2355 386.588 89.2355 386.588L89.5601 371.461C89.5601 371.461 77.5765 366.925 74.6691 368.278C71.7618 369.631 75.2879 371.877 71.7618 369.631C68.2357 367.386 67.8503 360.297 67.2474 366.685C66.6445 373.074 64.8795 374.263 62.2358 371.423C59.5922 368.582 47.344 370.397 47.344 370.397L55.138 311.418C55.53 308.451 54.9271 305.438 53.4235 302.85C51.9199 300.262 49.6002 298.243 46.8267 297.11Z" fill="#6C63FF"/>
<path d="M311.213 454.452L311.626 443.28L268.664 436.373L268.055 452.862L311.213 454.452Z" fill="#FFB6B6"/>
<path d="M303.414 457.816L303.007 439.928L310.665 440.21L323.03 423.673C323.64 422.856 324.497 422.256 325.473 421.959C326.45 421.662 327.496 421.685 328.458 422.024C329.421 422.363 330.25 423.001 330.824 423.843C331.398 424.686 331.688 425.69 331.65 426.708L330.865 447.958L323.154 451.342L330.677 453.051L330.381 461.063L303.414 457.816Z" fill="#2F2E41"/>
<path d="M69.4225 480.072L205.496 464.272C205.496 464.272 264.258 467.661 278.045 458.706L292.583 456.873L293.371 435.55C293.371 435.55 284.481 435.615 279.369 433.237C274.258 430.859 277.81 427.95 272.937 430.811C268.064 433.672 268.578 434.016 264.81 432.701C261.042 431.386 88.2551 424.334 88.2551 424.334L69.4225 480.072Z" fill="#2F2E41"/>
<path d="M248.732 470.819L256.644 462.908L229.854 428.671L218.177 440.345L248.732 470.819Z" fill="#FFB6B6"/>
<path d="M240.724 467.989L252.61 454.599L258.032 460.006L278.36 456.28C279.364 456.096 280.401 456.237 281.319 456.683C282.237 457.128 282.988 457.856 283.463 458.758C283.938 459.66 284.111 460.69 283.958 461.698C283.805 462.706 283.334 463.638 282.612 464.359L267.562 479.404L259.605 476.648L263.955 483.01L258.281 488.682L240.724 467.989Z" fill="#2F2E41"/>
<path d="M15.7375 405.661L17.0903 437.06C18.6828 474.023 59.4507 496.394 91.0631 477.095C91.6457 476.739 92.2303 476.371 92.8168 475.99C92.8168 475.99 104.801 472.776 104.437 467.687C104.074 462.598 107.001 460.121 109.592 461.509C112.183 462.896 146.106 414.825 146.106 414.825C146.106 414.825 216.588 449.93 232.137 458.194L248.543 453.731C248.543 453.731 254.718 456.642 252.494 452.431C250.269 448.22 249.871 450.237 249.187 445.648C248.504 441.06 246.756 435.371 245.696 435.61C244.636 435.849 158.502 375.654 158.502 375.654C158.502 375.654 144.469 361.474 127.063 370.836C126.7 372.212 127.01 372.259 127.01 372.259L69.5099 419.042L61.3852 403.636L15.7375 405.661Z" fill="#2F2E41"/>
<path d="M54.3846 290.293L29.7311 278.756L22.3502 291.58C22.3502 291.58 2.52712 319.825 2.23957 340.202C1.95202 360.579 5.47007 366.639 5.47007 366.639C5.47007 366.639 -3.07691 373.019 1.19657 376.919C5.47005 380.819 14.931 382.502 7.66454 384.192C0.398082 385.883 2.23957 403 10.3547 406.038C18.4699 409.077 62.0525 409.05 62.0525 409.05C61.6607 407.723 61.6318 406.316 61.9689 404.974C62.306 403.632 62.9968 402.404 63.9694 401.419C67.3481 398.037 70.3913 400.464 67.3481 395.199C64.3049 389.935 59.2329 392.973 63.2905 385.883C67.3481 378.793 67.3466 376.674 67.3466 376.674C67.3466 376.674 75.6183 360.956 63.1591 343.903C62.3996 342.864 63.0382 342.824 63.0382 342.824L52.9775 309.161L54.3846 290.293Z" fill="#6366F1"/>
<path d="M14.6542 241.784C14.8627 246.984 11.5809 254.351 9.96476 258.793C8.23693 263.542 15.7258 269.846 20.5192 271.227C20.7686 269.581 21.5906 268.076 22.8407 266.976C22.4952 268.544 22.4651 270.165 22.7522 271.745L63.2751 280.956C70.5652 272.527 77.8953 260.408 76.2964 245.793C76.6793 243.017 76.2326 240.191 75.0125 237.668C73.7923 235.145 71.8531 233.039 69.4381 231.613L48.9519 219.529C40.238 217.548 29.2645 216.352 22.9706 221.736C20.1585 224.234 17.9495 227.335 16.5092 230.807C15.0689 234.279 14.4347 238.032 14.6542 241.784Z" fill="#2F2E41"/>
<path d="M50.8756 276.503C63.761 276.503 74.2067 266.073 74.2067 253.207C74.2067 240.341 63.761 229.911 50.8756 229.911C37.9903 229.911 27.5446 240.341 27.5446 253.207C27.5446 266.073 37.9903 276.503 50.8756 276.503Z" fill="#FFB6B6"/>
<path d="M23.5432 240.761L22.4173 245.699L42.1002 250.173C42.1176 249.175 42.3417 248.19 42.7582 247.282C43.1747 246.374 43.7747 245.562 44.5206 244.896C44.096 246.832 44.1445 248.842 44.6619 250.756C55.2769 256.703 64.8445 258.81 73.4236 257.293C74.586 257.558 75.8058 257.35 76.8148 256.716C77.8237 256.082 78.5392 255.074 78.8039 253.914C82.2557 238.774 73.2124 223.3 58.1242 219.542C54.4567 218.627 50.643 218.451 46.9068 219.027C43.1705 219.602 39.587 220.916 36.3661 222.893C33.1453 224.869 30.352 227.467 28.15 230.536C25.9481 233.604 24.3819 237.08 23.5432 240.761Z" fill="#2F2E41"/>
<path d="M35.0509 208.182C37.6463 207.619 40.3929 207.755 42.7395 206L41.2006 209.527C45.4673 208.36 50.0158 208.814 53.967 210.8C55.1419 211.326 56.1438 212.173 56.8572 213.244C57.2406 213.89 57.4738 214.614 57.5396 215.362C57.6054 216.111 57.5021 216.864 57.2374 217.568C56.9852 218.171 56.6097 218.715 56.1349 219.165C55.6602 219.615 55.0966 219.962 54.4802 220.182C53.3878 220.51 52.2433 220.63 51.1065 220.535C46.3164 220.423 41.5264 220.312 36.7363 220.201C34.9109 220.314 33.0867 219.96 31.4365 219.172C30.5592 218.631 29.8592 217.846 29.4224 216.914C28.9857 215.981 28.8311 214.941 28.9777 213.922C29.4346 210.716 32.4556 208.744 35.0509 208.182Z" fill="#2F2E41"/>
<path d="M161.612 390.761C161.556 390.694 161.492 390.636 161.421 390.586C161.246 390.384 161.034 390.218 160.796 390.097L159.088 389.185L147.754 376.62C147.098 376.279 146.335 376.206 145.626 376.417L145.597 376.426L140.741 377.925L136.566 379.219L130.733 381.024L91.0029 393.308L64.8875 401.381C64.1815 401.605 63.5914 402.096 63.2443 402.749C62.8972 403.402 62.8209 404.165 63.0317 404.874C63.1545 405.264 63.3576 405.624 63.628 405.932L64.459 406.855L66.2021 408.794L70.2405 417.151L71.361 418.399C71.7181 418.797 72.1811 419.084 72.696 419.229C73.2108 419.373 73.7562 419.368 74.2682 419.214L160.304 395.326C160.75 395.181 161.155 394.929 161.481 394.592C161.808 394.255 162.046 393.842 162.175 393.391C162.305 392.94 162.321 392.464 162.222 392.006C162.124 391.547 161.914 391.12 161.612 390.761Z" fill="#CCCCCC"/>
<path d="M156.504 266.477L154.838 266.747C154.381 266.822 153.973 267.075 153.702 267.45L152.968 268.475L146.347 285.007C146.077 285.385 145.969 285.854 146.046 286.312L146.822 291.022L143.89 375.095C143.964 375.53 144.197 375.922 144.545 376.193L157.401 393.364L157.701 393.602L158.348 394.108C158.68 394.364 159.092 394.495 159.512 394.477L160.604 394.425C160.852 394.413 161.095 394.349 161.316 394.236C161.537 394.123 161.732 393.965 161.888 393.772C162.045 393.58 162.158 393.357 162.221 393.118C162.284 392.878 162.295 392.628 162.252 392.384L158.523 267.915C158.447 267.458 158.193 267.05 157.816 266.78C157.439 266.51 156.97 266.4 156.512 266.476L156.504 266.477Z" fill="#CCCCCC"/>
<path d="M153.714 273.01L147.849 290.849L145.58 362.108L154.709 370.211L153.714 273.01Z" fill="#6366F1"/>
<path d="M108.357 381.707C106.503 380.842 104.384 380.733 102.452 381.404C100.519 382.075 98.9243 383.473 98.0077 385.3C97.8272 385.674 97.6781 386.062 97.5618 386.461L70.2044 388.093L66.1499 402.246L103.384 395.964C105.078 396.317 106.841 396.101 108.398 395.348C109.956 394.596 111.22 393.35 111.993 391.805C112.865 390.02 112.992 387.963 112.345 386.086C111.698 384.209 110.33 382.665 108.543 381.794C108.482 381.764 108.42 381.735 108.357 381.707Z" fill="#FFB6B6"/>
<path d="M47.9712 311.9C46.1685 311.164 44.2281 310.824 42.2819 310.903C40.3357 310.982 38.4294 311.479 36.6927 312.359C34.9559 313.24 33.4294 314.483 32.217 316.006C31.0047 317.528 30.1348 319.293 29.6666 321.181L22.1453 351.509L23.5601 404.566C23.5601 404.566 62.8192 412.088 69.4098 407.253C76.0004 402.418 75.3816 398.819 76.0004 402.418C76.6193 406.018 79.4481 407.528 79.4873 406.096C79.5266 404.664 79.8466 404.909 81.4889 404.477C83.1313 404.046 90.38 401.379 90.38 401.379L90.7046 386.251C90.7046 386.251 78.7211 381.715 75.8137 383.068C72.9064 384.422 76.4325 386.668 72.9064 384.422C69.3803 382.176 68.9949 375.088 68.392 381.476C67.7891 387.864 66.0241 389.054 63.3804 386.213C60.7367 383.372 48.4885 385.187 48.4885 385.187L56.2826 326.208C56.6746 323.241 56.0717 320.229 54.5681 317.64C53.0645 315.052 50.7448 313.034 47.9712 311.9Z" fill="#6366F1"/>
<path d="M237.883 295.703C238.028 292.87 239.743 290.655 241.714 290.755C243.685 290.856 245.166 293.235 245.021 296.069C244.876 298.902 243.16 301.117 241.189 301.017C239.218 300.916 237.738 298.537 237.883 295.703Z" fill="#E6E6E6"/>
<path d="M231.518 262.725C231.663 259.891 233.378 257.676 235.349 257.777C237.32 257.877 238.801 260.256 238.656 263.09C238.511 265.923 236.796 268.139 234.824 268.038C232.853 267.937 231.373 265.558 231.518 262.725Z" fill="#3F3D56"/>
<path d="M211.791 307.341C211.936 304.507 213.651 302.292 215.622 302.393C217.594 302.494 219.074 304.872 218.929 307.706C218.784 310.54 217.069 312.755 215.098 312.654C213.126 312.553 211.646 310.175 211.791 307.341Z" fill="#FF6584"/>
<path d="M202.898 320.418C202.791 319.175 204.153 318.043 205.94 317.889C207.726 317.735 209.261 318.618 209.368 319.861C209.475 321.104 208.113 322.236 206.327 322.39C204.54 322.543 203.005 321.661 202.898 320.418Z" fill="#E6E6E6"/>
<path d="M182.8 327.248C182.693 326.005 184.054 324.873 185.841 324.719C187.627 324.565 189.162 325.448 189.269 326.691C189.376 327.934 188.015 329.066 186.228 329.22C184.442 329.373 182.907 328.49 182.8 327.248Z" fill="#3F3D56"/>
<path d="M215.408 285.72C215.301 284.477 216.663 283.345 218.45 283.192C220.236 283.038 221.771 283.921 221.878 285.164C221.985 286.406 220.623 287.539 218.837 287.692C217.05 287.846 215.515 286.963 215.408 285.72Z" fill="#E6E6E6"/>
<path d="M224.945 301.052C224.838 299.809 226.2 298.677 227.986 298.523C229.773 298.37 231.308 299.252 231.415 300.495C231.522 301.738 230.16 302.87 228.374 303.024C226.587 303.178 225.052 302.295 224.945 301.052Z" fill="#FF6584"/>
<path d="M237.691 277.273C237.584 276.03 238.946 274.898 240.732 274.744C242.519 274.59 244.054 275.473 244.161 276.716C244.267 277.959 242.906 279.091 241.119 279.245C239.333 279.398 237.798 278.515 237.691 277.273Z" fill="#3F3D56"/>
</svg>
