<svg width="696.289" height="103.711" viewBox="0 0 696.289 103.711" xmlns="http://www.w3.org/2000/svg"><g id="svgGroup" stroke-linecap="round" fill-rule="evenodd" font-size="9pt" stroke="#000" stroke-width="0.25mm" fill="#000" style="stroke:#000;stroke-width:0.25mm;fill:#000"><path d="M 18.652 41.016 L 19.238 70.264 L 24.561 69.678 Q 25.391 69.678 25.391 70.508 L 24.463 78.076 Q 24.276 79.102 23.466 79.148 A 1.366 1.366 0 0 1 23.389 79.15 L 3.027 79.15 A 0.715 0.715 0 0 1 2.617 79.037 Q 2.246 78.787 2.246 77.979 L 3.223 70.508 A 1.882 1.882 0 0 1 3.352 70.084 Q 3.624 69.482 4.297 69.482 L 8.447 69.482 L 8.447 37.207 L 0.977 37.012 Q 0 37.012 0 35.84 L 0.879 27.393 Q 0.969 26.631 1.881 26.404 A 2.71 2.71 0 0 1 2.051 26.367 L 15.576 24.365 Q 16.455 24.365 16.455 25.488 L 16.455 33.936 Q 26.514 23.877 36.23 23.877 A 17.36 17.36 0 0 1 41.374 24.581 Q 47.917 26.609 49.512 34.473 A 38.375 38.375 0 0 1 50.064 38.281 A 30.166 30.166 0 0 1 50.195 41.04 Q 50.195 44.092 50.146 46.167 A 255.395 255.395 0 0 1 50.085 48.346 A 335.816 335.816 0 0 1 50 50.732 L 49.902 55.811 L 49.707 61.182 L 49.512 66.357 A 719.567 719.567 0 0 1 49.414 68.75 A 557.558 557.558 0 0 1 49.316 70.947 L 54.932 70.703 A 1.276 1.276 0 0 1 55.362 70.77 Q 55.926 70.971 55.955 71.783 A 2.522 2.522 0 0 1 55.957 71.875 L 55.957 79.053 A 1.98 1.98 0 0 1 55.942 79.305 Q 55.907 79.576 55.789 79.72 A 0.427 0.427 0 0 1 55.688 79.81 A 1.007 1.007 0 0 1 55.49 79.904 Q 55.282 79.979 54.975 80.015 A 4.234 4.234 0 0 1 54.834 80.029 L 40.674 81.104 A 1.546 1.546 0 0 1 40.249 81.05 Q 39.772 80.914 39.645 80.427 A 1.583 1.583 0 0 1 39.6 80.029 A 401.184 401.184 0 0 0 39.709 74.866 A 331.455 331.455 0 0 0 39.746 70.02 L 39.844 61.865 L 39.844 55.371 L 39.844 46.436 Q 39.844 41.02 39.023 39.101 A 3.188 3.188 0 0 0 38.818 38.696 A 7.122 7.122 0 0 0 38.073 37.674 Q 37.323 36.827 36.426 36.475 A 6.701 6.701 0 0 0 35.278 36.148 Q 34.686 36.03 33.986 35.978 A 15.925 15.925 0 0 0 32.813 35.938 A 18.569 18.569 0 0 0 27.592 36.744 Q 25.257 37.428 22.72 38.694 A 44.725 44.725 0 0 0 18.652 41.016 Z M 143.848 41.016 L 144.434 70.264 L 149.756 69.678 Q 150.586 69.678 150.586 70.508 L 149.658 78.076 Q 149.472 79.102 148.661 79.148 A 1.366 1.366 0 0 1 148.584 79.15 L 128.223 79.15 A 0.715 0.715 0 0 1 127.813 79.037 Q 127.441 78.787 127.441 77.979 L 128.418 70.508 A 1.882 1.882 0 0 1 128.547 70.084 Q 128.819 69.482 129.492 69.482 L 133.643 69.482 L 133.643 37.207 L 126.172 37.012 Q 125.195 37.012 125.195 35.84 L 126.074 27.393 Q 126.164 26.631 127.076 26.404 A 2.71 2.71 0 0 1 127.246 26.367 L 140.771 24.365 Q 141.65 24.365 141.65 25.488 L 141.65 33.936 Q 151.709 23.877 161.426 23.877 A 17.36 17.36 0 0 1 166.569 24.581 Q 173.112 26.609 174.707 34.473 A 38.375 38.375 0 0 1 175.26 38.281 A 30.166 30.166 0 0 1 175.391 41.04 Q 175.391 44.092 175.342 46.167 A 255.395 255.395 0 0 1 175.281 48.346 A 335.816 335.816 0 0 1 175.195 50.732 L 175.098 55.811 L 174.902 61.182 L 174.707 66.357 A 719.567 719.567 0 0 1 174.609 68.75 A 557.558 557.558 0 0 1 174.512 70.947 L 180.127 70.703 A 1.276 1.276 0 0 1 180.557 70.77 Q 181.121 70.971 181.151 71.783 A 2.522 2.522 0 0 1 181.152 71.875 L 181.152 79.053 A 1.98 1.98 0 0 1 181.138 79.305 Q 181.103 79.576 180.985 79.72 A 0.427 0.427 0 0 1 180.884 79.81 A 1.007 1.007 0 0 1 180.685 79.904 Q 180.478 79.979 180.17 80.015 A 4.234 4.234 0 0 1 180.029 80.029 L 165.869 81.104 A 1.546 1.546 0 0 1 165.444 81.05 Q 164.967 80.914 164.841 80.427 A 1.583 1.583 0 0 1 164.795 80.029 A 401.184 401.184 0 0 0 164.905 74.866 A 331.455 331.455 0 0 0 164.941 70.02 L 165.039 61.865 L 165.039 55.371 L 165.039 46.436 Q 165.039 41.02 164.219 39.101 A 3.188 3.188 0 0 0 164.014 38.696 A 7.122 7.122 0 0 0 163.268 37.674 Q 162.518 36.827 161.621 36.475 A 6.701 6.701 0 0 0 160.474 36.148 Q 159.881 36.03 159.181 35.978 A 15.925 15.925 0 0 0 158.008 35.938 A 18.569 18.569 0 0 0 152.787 36.744 Q 150.452 37.428 147.915 38.694 A 44.725 44.725 0 0 0 143.848 41.016 Z M 385.84 41.016 L 386.426 70.264 L 391.748 69.678 Q 392.578 69.678 392.578 70.508 L 391.65 78.076 Q 391.464 79.102 390.654 79.148 A 1.366 1.366 0 0 1 390.576 79.15 L 370.215 79.15 A 0.715 0.715 0 0 1 369.805 79.037 Q 369.434 78.787 369.434 77.979 L 370.41 70.508 A 1.882 1.882 0 0 1 370.539 70.084 Q 370.811 69.482 371.484 69.482 L 375.635 69.482 L 375.635 37.207 L 368.164 37.012 Q 367.188 37.012 367.188 35.84 L 368.066 27.393 Q 368.156 26.631 369.068 26.404 A 2.71 2.71 0 0 1 369.238 26.367 L 382.764 24.365 Q 383.643 24.365 383.643 25.488 L 383.643 33.936 Q 393.701 23.877 403.418 23.877 A 17.36 17.36 0 0 1 408.561 24.581 Q 415.105 26.609 416.699 34.473 A 38.375 38.375 0 0 1 417.252 38.281 A 30.166 30.166 0 0 1 417.383 41.04 Q 417.383 44.092 417.334 46.167 A 255.395 255.395 0 0 1 417.273 48.346 A 335.816 335.816 0 0 1 417.188 50.732 L 417.09 55.811 L 416.895 61.182 L 416.699 66.357 A 719.567 719.567 0 0 1 416.602 68.75 A 557.558 557.558 0 0 1 416.504 70.947 L 422.119 70.703 A 1.276 1.276 0 0 1 422.55 70.77 Q 423.113 70.971 423.143 71.783 A 2.522 2.522 0 0 1 423.145 71.875 L 423.145 79.053 A 1.98 1.98 0 0 1 423.13 79.305 Q 423.095 79.576 422.977 79.72 A 0.427 0.427 0 0 1 422.876 79.81 A 1.007 1.007 0 0 1 422.677 79.904 Q 422.47 79.979 422.162 80.015 A 4.234 4.234 0 0 1 422.021 80.029 L 407.861 81.104 A 1.546 1.546 0 0 1 407.436 81.05 Q 406.96 80.914 406.833 80.427 A 1.583 1.583 0 0 1 406.787 80.029 A 401.184 401.184 0 0 0 406.897 74.866 A 331.455 331.455 0 0 0 406.934 70.02 L 407.031 61.865 L 407.031 55.371 L 407.031 46.436 Q 407.031 41.02 406.211 39.101 A 3.188 3.188 0 0 0 406.006 38.696 A 7.122 7.122 0 0 0 405.261 37.674 Q 404.51 36.827 403.613 36.475 A 6.701 6.701 0 0 0 402.466 36.148 Q 401.873 36.03 401.173 35.978 A 15.925 15.925 0 0 0 400 35.938 A 18.569 18.569 0 0 0 394.779 36.744 Q 392.444 37.428 389.907 38.694 A 44.725 44.725 0 0 0 385.84 41.016 Z M 241.162 26.074 L 240.527 33.74 A 1.515 1.515 0 0 1 240.427 34.174 Q 240.233 34.645 239.699 34.741 A 1.669 1.669 0 0 1 239.404 34.766 L 230.615 33.057 Q 235.371 38.124 235.798 42.3 A 8.013 8.013 0 0 1 235.84 43.115 Q 235.84 47.607 234.644 51.245 A 14.286 14.286 0 0 1 230.762 57.373 A 16.418 16.418 0 0 1 225.089 60.753 Q 222.62 61.655 219.566 62.078 A 42.714 42.714 0 0 1 213.721 62.451 A 37.426 37.426 0 0 1 209.351 62.207 A 28.543 28.543 0 0 1 205.42 61.475 Q 204.248 64.16 204.248 65.869 A 19.141 19.141 0 0 0 204.263 66.663 Q 204.295 67.423 204.393 67.921 A 3.173 3.173 0 0 0 204.492 68.311 A 2.076 2.076 0 0 0 205.262 69.346 A 2.715 2.715 0 0 0 205.469 69.482 Q 206.7 70.257 209.144 70.309 A 16.808 16.808 0 0 0 209.497 70.313 A 89.674 89.674 0 0 0 212.761 70.255 A 74.538 74.538 0 0 0 214.6 70.166 Q 219.347 69.942 222.65 69.889 A 118.973 118.973 0 0 1 224.536 69.873 A 19.674 19.674 0 0 1 228.403 70.238 A 15.889 15.889 0 0 1 231.274 71.094 A 14.874 14.874 0 0 1 233.99 72.522 A 11.636 11.636 0 0 1 236.133 74.365 A 13.648 13.648 0 0 1 239.319 80.735 A 19.841 19.841 0 0 1 239.746 84.961 A 16.385 16.385 0 0 1 237.994 92.579 Q 236.398 95.676 233.35 98.096 Q 227.602 102.686 218.071 103.524 A 50.809 50.809 0 0 1 213.623 103.711 A 66.652 66.652 0 0 1 208.252 103.51 Q 202.993 103.083 199.648 101.749 A 14.402 14.402 0 0 1 198.096 101.025 A 11.222 11.222 0 0 1 194.788 98.361 Q 192.897 96.072 192.624 92.824 A 13.419 13.419 0 0 1 192.578 91.699 Q 192.578 86.84 195.92 81.37 A 37.968 37.968 0 0 1 198.193 78.076 A 7.213 7.213 0 0 1 194.461 72.921 A 10.437 10.437 0 0 1 194.287 70.972 Q 194.287 66.546 198.895 60.551 A 46.226 46.226 0 0 1 199.951 59.229 A 15.202 15.202 0 0 1 192.535 48.636 A 25.506 25.506 0 0 1 192.041 43.457 A 23.611 23.611 0 0 1 192.808 37.258 A 16.457 16.457 0 0 1 198.535 28.467 A 19.743 19.743 0 0 1 205.432 24.988 Q 209.424 23.828 214.502 23.828 A 334.049 334.049 0 0 1 219.556 23.865 A 254.439 254.439 0 0 1 224.17 23.975 A 984.532 984.532 0 0 0 228.989 24.124 Q 233.64 24.256 236.98 24.298 A 225.294 225.294 0 0 0 239.746 24.316 Q 241.064 24.316 241.162 26.074 Z M 608.301 34.57 L 608.301 26.318 A 1.209 1.209 0 0 1 608.365 25.908 Q 608.568 25.342 609.424 25.342 L 631.592 25.342 Q 632.275 25.342 632.373 25.61 A 1.241 1.241 0 0 1 632.422 25.794 Q 632.462 25.993 632.469 26.28 A 5.349 5.349 0 0 1 632.471 26.416 L 631.738 34.229 A 3.978 3.978 0 0 1 631.687 34.502 Q 631.629 34.76 631.547 34.915 A 0.594 0.594 0 0 1 631.445 35.059 Q 631.287 35.217 630.871 35.247 A 2.898 2.898 0 0 1 630.664 35.254 L 625.537 35.4 L 637.988 70.361 L 648.828 34.668 L 642.871 35.303 A 1.062 1.062 0 0 1 642.536 35.254 Q 642.2 35.143 642.09 34.773 A 1.337 1.337 0 0 1 642.041 34.473 L 641.504 26.416 Q 641.65 25.439 642.578 25.342 L 663.428 24.365 A 0.767 0.767 0 0 1 663.856 24.513 Q 664.136 24.726 664.194 25.244 A 2.633 2.633 0 0 1 664.209 25.537 L 664.209 34.473 A 1.882 1.882 0 0 1 664.08 34.897 Q 663.808 35.498 663.135 35.498 L 658.301 35.498 L 643.164 79.199 Q 642.919 79.974 642.163 80.17 A 2.038 2.038 0 0 1 641.846 80.225 L 633.105 80.615 A 1.485 1.485 0 0 1 632.006 79.945 A 2.578 2.578 0 0 1 631.738 79.443 L 613.818 35.645 L 609.326 35.742 A 1.276 1.276 0 0 1 608.896 35.676 Q 608.332 35.474 608.302 34.662 A 2.522 2.522 0 0 1 608.301 34.57 Z M 352.441 52.783 L 352.1 62.354 A 262.04 262.04 0 0 1 351.99 65.161 A 223.469 223.469 0 0 1 351.855 67.822 L 351.66 72.461 L 354.59 72.217 Q 356.094 72.126 357.982 71.949 A 149.422 149.422 0 0 0 358.252 71.924 Q 359.125 71.924 359.255 72.597 A 1.349 1.349 0 0 1 359.277 72.852 L 358.398 80.566 A 1.324 1.324 0 0 1 358.246 81.014 Q 358.047 81.359 357.628 81.484 A 1.673 1.673 0 0 1 357.324 81.543 L 343.213 82.422 Q 342.529 82.422 342.529 81.348 L 343.213 75.635 A 30.461 30.461 0 0 1 334.01 80.595 A 27.353 27.353 0 0 1 325.488 81.934 A 21.057 21.057 0 0 1 319.754 81.189 A 16.315 16.315 0 0 1 313.184 77.588 A 15.14 15.14 0 0 1 308.195 67.696 A 21.338 21.338 0 0 1 308.057 65.234 A 22.795 22.795 0 0 1 308.64 59.893 A 13.467 13.467 0 0 1 315.039 51.025 Q 320.233 47.975 331.098 47.5 A 96.343 96.343 0 0 1 335.303 47.412 A 132.453 132.453 0 0 1 339.117 47.469 A 159.853 159.853 0 0 1 341.553 47.559 A 69.424 69.424 0 0 0 341.589 46.338 A 53.995 53.995 0 0 0 341.602 45.215 L 341.602 43.359 Q 341.602 33.838 333.252 33.838 Q 328.906 33.838 322.51 36.475 L 322.705 38.33 Q 322.803 39.258 322.803 39.795 A 1.546 1.546 0 0 1 322.749 40.22 Q 322.613 40.697 322.126 40.823 A 1.583 1.583 0 0 1 321.729 40.869 L 313.477 41.016 A 1.324 1.324 0 0 1 313.029 40.863 Q 312.684 40.664 312.559 40.245 A 1.673 1.673 0 0 1 312.5 39.941 L 311.67 25.977 Q 311.67 24.805 312.744 24.658 L 320.898 23.584 A 1.405 1.405 0 0 1 321.31 23.639 Q 321.763 23.778 321.882 24.267 A 1.664 1.664 0 0 1 321.924 24.658 L 321.924 28.711 A 45.131 45.131 0 0 1 328.307 25.736 Q 333.484 23.828 338.184 23.828 A 16.43 16.43 0 0 1 344.507 24.951 Q 351.637 27.906 352.514 38.636 A 38.864 38.864 0 0 1 352.637 41.797 Q 352.637 45.597 352.48 51.39 A 696.052 696.052 0 0 1 352.441 52.783 Z M 284.961 11.084 L 276.758 10.938 Q 275.781 10.938 275.781 9.766 L 276.27 1.953 Q 276.367 0.977 277.393 0.977 L 294.141 1.904 A 1.112 1.112 0 0 1 294.551 2.024 Q 294.998 2.267 295.019 2.961 A 2.287 2.287 0 0 1 295.02 3.027 L 295.02 71.582 L 300.146 71.045 A 1.485 1.485 0 0 1 300.527 71.089 Q 301.012 71.218 301.102 71.723 A 1.421 1.421 0 0 1 301.123 71.973 L 300.244 79.541 Q 300.098 80.371 299.121 80.518 L 287.012 82.471 A 1.138 1.138 0 0 1 286.62 82.409 Q 286.119 82.225 286.086 81.5 A 2.31 2.31 0 0 1 286.084 81.397 L 286.475 76.563 A 53.224 53.224 0 0 1 280.566 78.616 Q 275.845 79.932 271.802 79.932 A 38.876 38.876 0 0 1 267.673 79.726 Q 265.653 79.51 263.96 79.066 A 16.921 16.921 0 0 1 261.377 78.174 A 15.106 15.106 0 0 1 254.98 72.9 Q 251.259 67.4 250.689 55.806 A 89.569 89.569 0 0 1 250.586 51.416 Q 250.586 35.073 256.94 28.497 A 13.794 13.794 0 0 1 261.768 25.244 Q 265.527 23.731 271.973 23.731 Q 278.418 23.731 285.596 26.465 L 284.961 11.084 Z M 530.713 11.084 L 522.51 10.938 Q 521.533 10.938 521.533 9.766 L 522.021 1.953 Q 522.119 0.977 523.145 0.977 L 539.893 1.904 A 1.112 1.112 0 0 1 540.303 2.024 Q 540.75 2.267 540.771 2.961 A 2.287 2.287 0 0 1 540.771 3.027 L 540.771 71.582 L 545.898 71.045 A 1.485 1.485 0 0 1 546.279 71.089 Q 546.764 71.218 546.854 71.723 A 1.421 1.421 0 0 1 546.875 71.973 L 545.996 79.541 Q 545.85 80.371 544.873 80.518 L 532.764 82.471 A 1.138 1.138 0 0 1 532.371 82.409 Q 531.871 82.225 531.838 81.5 A 2.31 2.31 0 0 1 531.836 81.397 L 532.227 76.563 A 53.224 53.224 0 0 1 526.318 78.616 Q 521.597 79.932 517.554 79.932 A 38.876 38.876 0 0 1 513.425 79.726 Q 511.405 79.51 509.712 79.066 A 16.921 16.921 0 0 1 507.129 78.174 A 15.106 15.106 0 0 1 500.732 72.9 Q 497.011 67.4 496.441 55.806 A 89.569 89.569 0 0 1 496.338 51.416 Q 496.338 35.073 502.692 28.497 A 13.794 13.794 0 0 1 507.52 25.244 Q 511.279 23.731 517.725 23.731 Q 524.17 23.731 531.348 26.465 L 530.713 11.084 Z M 589.844 83.301 L 590.039 79.736 Q 585.498 80.872 579.178 81.182 A 102.259 102.259 0 0 1 574.17 81.299 A 25.08 25.08 0 0 1 568.816 80.765 Q 565.475 80.035 563.021 78.303 A 13.462 13.462 0 0 1 559.912 75.244 A 19.339 19.339 0 0 1 557.271 70.043 Q 555.547 65.038 555.311 57.667 A 74.904 74.904 0 0 1 555.273 55.273 A 83.622 83.622 0 0 1 555.586 47.774 Q 556.267 40.24 558.43 35.431 A 20.543 20.543 0 0 1 559.229 33.838 Q 563.721 26.025 573.584 24.316 A 39.555 39.555 0 0 1 577.436 23.859 A 52.737 52.737 0 0 1 581.201 23.731 A 29.15 29.15 0 0 1 585.892 24.082 Q 588.382 24.489 590.35 25.367 A 12.003 12.003 0 0 1 594.336 28.174 A 13.725 13.725 0 0 1 597.14 32.959 Q 598.438 36.612 598.438 41.748 Q 598.438 47.705 596.338 50.928 Q 595.815 51.713 595.005 52.655 A 30.119 30.119 0 0 1 594.482 53.247 Q 593.49 54.343 591.079 55.229 A 21.902 21.902 0 0 1 590.161 55.542 A 35.921 35.921 0 0 1 586.786 56.427 Q 585.042 56.8 583.085 57.063 A 57.53 57.53 0 0 1 582.959 57.08 A 81.77 81.77 0 0 1 578.56 57.492 Q 573.964 57.809 567.714 57.854 A 292.709 292.709 0 0 1 565.625 57.861 Q 566.153 64.719 568.602 67.935 A 7.782 7.782 0 0 0 569.678 69.092 Q 571.997 71.192 577.375 71.41 A 31.789 31.789 0 0 0 578.662 71.436 Q 584.668 71.436 590.625 70.41 L 590.771 67.871 Q 590.82 67.285 591.04 67.09 Q 591.26 66.895 591.846 66.748 L 598.877 65.186 A 1.843 1.843 0 0 1 599.33 65.237 Q 599.919 65.386 600.069 65.975 A 1.514 1.514 0 0 1 600.098 66.113 A 9.234 9.234 0 0 1 600.166 66.59 Q 600.252 67.294 600.338 68.544 A 101.785 101.785 0 0 1 600.391 69.36 A 251.196 251.196 0 0 0 600.5 71.08 Q 600.592 72.437 600.684 73.535 A 154.687 154.687 0 0 1 600.876 76.09 A 135.285 135.285 0 0 1 600.928 76.904 L 601.123 79.639 A 79.541 79.541 0 0 1 601.144 80.225 Q 601.172 81.064 601.172 81.685 A 29.876 29.876 0 0 1 601.172 81.689 Q 601.172 82.889 599.731 83.27 A 4.974 4.974 0 0 1 599.023 83.398 L 590.918 84.375 A 1.546 1.546 0 0 1 590.493 84.322 Q 590.016 84.185 589.89 83.699 A 1.583 1.583 0 0 1 589.844 83.301 Z M 487.793 1.074 L 487.305 8.936 Q 487.245 9.656 487 9.934 A 0.485 0.485 0 0 1 486.621 10.107 Q 480.811 10.107 479.443 10.962 A 4.572 4.572 0 0 0 478.479 11.753 A 3.526 3.526 0 0 0 477.686 13.159 Q 477.295 14.502 477.295 16.748 L 477.637 33.252 A 12.547 12.547 0 0 1 474.854 41.162 A 8.029 8.029 0 0 1 472.656 43.164 A 7.535 7.535 0 0 1 476.359 47.449 Q 476.883 48.851 477.079 50.622 A 20.514 20.514 0 0 1 477.197 52.881 A 75.161 75.161 0 0 1 477.064 57.451 A 61.624 61.624 0 0 1 476.855 60.01 A 199.976 199.976 0 0 0 476.521 64.027 Q 476.23 68.032 476.221 70.881 A 57.368 57.368 0 0 0 476.221 71.069 A 90.65 90.65 0 0 0 476.232 72.544 Q 476.269 74.821 476.43 75.886 A 4.442 4.442 0 0 0 476.538 76.416 A 4.421 4.421 0 0 0 476.927 77.372 A 3.461 3.461 0 0 0 477.588 78.223 Q 479.475 79.972 484.877 79.334 A 32.17 32.17 0 0 0 485.547 79.248 A 1.095 1.095 0 0 1 485.731 79.262 Q 486.009 79.31 486.084 79.517 A 1.465 1.465 0 0 1 486.132 79.685 Q 486.195 79.954 486.23 80.42 L 485.742 88.281 A 1.208 1.208 0 0 1 485.625 88.69 Q 485.458 89.02 485.073 89.145 A 1.543 1.543 0 0 1 484.766 89.209 A 47.278 47.278 0 0 1 482.184 89.392 A 64.003 64.003 0 0 1 479.321 89.453 A 14.507 14.507 0 0 1 473.535 88.257 A 12.824 12.824 0 0 1 471.352 87.071 A 9.258 9.258 0 0 1 469.238 85.107 A 10.443 10.443 0 0 1 467.563 81.918 Q 467.064 80.43 466.838 78.603 A 26.618 26.618 0 0 1 466.65 75.342 Q 466.65 70.459 467.285 64.551 Q 468.245 55.55 468.306 53.133 A 11.894 11.894 0 0 0 468.311 52.832 Q 468.311 51.094 467.926 50.159 A 2.578 2.578 0 0 0 467.749 49.805 A 3.691 3.691 0 0 0 466.211 48.389 Q 464.502 47.51 460.938 47.51 A 0.931 0.931 0 0 1 460.509 47.417 Q 460.125 47.221 460.035 46.611 A 2.61 2.61 0 0 1 460.01 46.338 L 459.521 39.453 A 1.266 1.266 0 0 1 459.572 39.08 Q 459.698 38.671 460.143 38.563 A 1.52 1.52 0 0 1 460.498 38.525 Q 468.408 38.525 468.408 33.496 A 96.767 96.767 0 0 0 468.387 31.406 Q 468.365 30.423 468.323 29.545 A 57.496 57.496 0 0 0 468.311 29.297 L 468.115 25.586 Q 467.853 20.607 467.826 17.327 A 89.036 89.036 0 0 1 467.822 16.577 A 59.105 59.105 0 0 1 468.103 10.74 A 53.552 53.552 0 0 1 468.188 9.937 A 13.378 13.378 0 0 1 468.78 7.201 A 10.094 10.094 0 0 1 470.117 4.541 Q 472.907 0.487 481.261 0.052 A 40.205 40.205 0 0 1 483.35 0 Q 487.305 0 487.524 0.269 Q 487.681 0.46 487.751 0.789 A 2.442 2.442 0 0 1 487.793 1.074 Z M 668.018 88.379 L 668.506 80.518 Q 668.566 79.797 668.81 79.52 A 0.485 0.485 0 0 1 669.189 79.346 Q 675 79.346 676.367 78.491 A 4.665 4.665 0 0 0 677.313 77.724 A 3.494 3.494 0 0 0 678.125 76.318 Q 678.516 75 678.516 72.705 L 678.174 56.201 A 12.417 12.417 0 0 1 680.957 48.291 Q 681.885 47.119 683.154 46.289 A 7.535 7.535 0 0 1 679.452 42.004 Q 678.928 40.602 678.731 38.831 A 20.514 20.514 0 0 1 678.613 36.572 A 87.652 87.652 0 0 1 678.728 32.002 A 71.704 71.704 0 0 1 678.906 29.443 A 185.999 185.999 0 0 0 679.267 25.426 Q 679.579 21.421 679.59 18.572 A 53.266 53.266 0 0 0 679.59 18.384 A 90.65 90.65 0 0 0 679.579 16.909 Q 679.541 14.632 679.38 13.567 A 4.442 4.442 0 0 0 679.272 13.037 A 4.421 4.421 0 0 0 678.884 12.081 A 3.461 3.461 0 0 0 678.223 11.231 A 4.134 4.134 0 0 0 676.727 10.365 Q 675.689 10.01 674.268 10.01 Q 671.631 10.01 670.728 10.107 A 5.224 5.224 0 0 1 670.569 10.122 Q 669.994 10.167 669.806 10.035 A 0.206 0.206 0 0 1 669.727 9.937 A 1.465 1.465 0 0 1 669.678 9.768 Q 669.616 9.499 669.58 9.033 L 670.068 1.172 A 1.208 1.208 0 0 1 670.185 0.763 Q 670.353 0.434 670.738 0.308 A 1.543 1.543 0 0 1 671.045 0.244 A 47.278 47.278 0 0 1 673.627 0.061 A 64.003 64.003 0 0 1 676.489 0 A 14.507 14.507 0 0 1 682.275 1.196 A 13.153 13.153 0 0 1 684.477 2.388 A 9.689 9.689 0 0 1 686.621 4.346 A 10.463 10.463 0 0 1 688.241 7.464 Q 688.729 8.92 688.958 10.705 A 26.858 26.858 0 0 1 689.16 14.111 Q 689.16 18.994 688.525 24.902 Q 687.566 33.903 687.504 36.32 A 11.894 11.894 0 0 0 687.5 36.621 Q 687.5 38.359 687.885 39.294 A 2.578 2.578 0 0 0 688.062 39.648 A 3.691 3.691 0 0 0 689.6 41.064 Q 691.211 41.943 694.873 41.943 A 0.83 0.83 0 0 1 695.348 42.076 Q 695.736 42.337 695.801 43.115 L 696.289 50 A 1.266 1.266 0 0 1 696.239 50.373 Q 696.113 50.783 695.668 50.89 A 1.52 1.52 0 0 1 695.313 50.928 Q 687.402 50.928 687.402 55.957 A 96.767 96.767 0 0 0 687.424 58.047 Q 687.445 59.03 687.487 59.908 A 57.496 57.496 0 0 0 687.5 60.156 L 687.695 63.867 Q 687.957 68.847 687.985 72.126 A 89.036 89.036 0 0 1 687.988 72.876 A 59.105 59.105 0 0 1 687.708 78.713 A 53.552 53.552 0 0 1 687.622 79.517 A 13.899 13.899 0 0 1 687.055 82.21 A 10.321 10.321 0 0 1 685.742 84.912 Q 682.874 89.015 674.345 89.411 A 40.701 40.701 0 0 1 672.461 89.453 Q 668.506 89.453 668.286 89.185 Q 668.129 88.993 668.059 88.664 A 2.442 2.442 0 0 1 668.018 88.379 Z M 68.433 38.696 A 37.658 37.658 0 0 0 67.809 41.731 Q 67.041 46.385 67.041 52.588 A 76.119 76.119 0 0 0 67.066 54.556 Q 67.291 63.234 69.532 68.94 A 18.974 18.974 0 0 0 73.34 75.147 A 16.165 16.165 0 0 0 78.696 78.847 Q 81.337 80.006 84.677 80.542 A 39.74 39.74 0 0 0 90.967 81.006 A 38.037 38.037 0 0 0 95.369 80.764 Q 98.6 80.387 101.2 79.422 A 15.652 15.652 0 0 0 107.715 75.049 A 15.597 15.597 0 0 0 108.422 74.153 Q 109.635 72.495 110.545 70.371 A 27.656 27.656 0 0 0 111.89 66.357 A 28.076 28.076 0 0 0 112.153 65.233 Q 112.909 61.687 113.159 56.479 A 116.009 116.009 0 0 0 113.281 50.952 A 60.21 60.21 0 0 0 113.188 47.547 Q 112.982 43.916 112.323 40.792 A 30.338 30.338 0 0 0 110.254 34.375 A 20.899 20.899 0 0 0 108.813 31.78 A 15.64 15.64 0 0 0 106.616 29.102 A 13.495 13.495 0 0 0 105.751 28.336 Q 104.736 27.512 103.447 26.765 A 26.172 26.172 0 0 0 100.806 25.439 A 12.786 12.786 0 0 0 99.223 24.878 Q 96.705 24.153 92.845 23.929 A 64.549 64.549 0 0 0 89.111 23.828 A 37.471 37.471 0 0 0 85.029 24.04 Q 76.684 24.955 72.559 29.834 A 15.964 15.964 0 0 0 71.661 31.037 Q 70.564 32.658 69.725 34.706 A 29.398 29.398 0 0 0 68.433 38.696 Z M 284.863 67.969 L 285.889 36.377 A 80.938 80.938 0 0 0 281.775 35.476 Q 277.808 34.722 274.896 34.672 A 23.775 23.775 0 0 0 274.487 34.668 A 46.414 46.414 0 0 0 272.168 34.722 Q 269.927 34.835 268.405 35.181 A 10.855 10.855 0 0 0 267.749 35.352 Q 265.43 36.035 263.965 37.939 Q 261.737 40.82 261.262 47.838 A 61.095 61.095 0 0 0 261.133 51.953 Q 261.133 62.256 263.379 65.918 A 7.55 7.55 0 0 0 267.227 69.004 Q 268.599 69.534 270.333 69.74 A 20.06 20.06 0 0 0 272.705 69.873 A 38.556 38.556 0 0 0 279.34 69.271 A 50.6 50.6 0 0 0 284.863 67.969 Z M 530.615 67.969 L 531.641 36.377 A 80.938 80.938 0 0 0 527.527 35.476 Q 523.559 34.722 520.648 34.672 A 23.775 23.775 0 0 0 520.239 34.668 A 46.414 46.414 0 0 0 517.92 34.722 Q 515.679 34.835 514.157 35.181 A 10.855 10.855 0 0 0 513.501 35.352 Q 511.182 36.035 509.717 37.939 Q 507.489 40.82 507.014 47.838 A 61.095 61.095 0 0 0 506.885 51.953 Q 506.885 62.256 509.131 65.918 A 7.55 7.55 0 0 0 512.979 69.004 Q 514.351 69.534 516.085 69.74 A 20.06 20.06 0 0 0 518.457 69.873 A 38.556 38.556 0 0 0 525.092 69.271 A 50.6 50.6 0 0 0 530.615 67.969 Z M 100.293 67.773 Q 101.758 65.82 102.49 62.305 Q 103.051 59.613 103.182 56.006 A 63.083 63.083 0 0 0 103.223 53.711 A 79.694 79.694 0 0 0 103.17 50.728 Q 103.055 47.656 102.686 45.508 A 28.774 28.774 0 0 0 102.224 43.312 Q 101.954 42.245 101.62 41.338 A 14.428 14.428 0 0 0 101.196 40.308 A 12.488 12.488 0 0 0 100.328 38.713 Q 99.793 37.889 99.173 37.271 A 7.255 7.255 0 0 0 98.926 37.036 Q 97.607 35.84 96.045 35.254 Q 94.373 34.627 91.931 34.447 A 28.497 28.497 0 0 0 89.844 34.375 A 41.744 41.744 0 0 0 87.585 34.432 Q 85.269 34.558 83.691 34.961 Q 81.396 35.547 79.883 37.451 A 9.545 9.545 0 0 0 78.506 40.088 Q 77.006 44.266 77.002 52.351 A 86.406 86.406 0 0 0 77.002 52.393 A 45.122 45.122 0 0 0 77.357 58.305 Q 78.227 64.855 81.233 67.948 A 8.808 8.808 0 0 0 85.596 70.41 A 22.904 22.904 0 0 0 89.337 70.977 A 27.823 27.823 0 0 0 91.309 71.045 Q 93.9 71.045 95.884 70.577 A 13.102 13.102 0 0 0 96.606 70.386 A 7.006 7.006 0 0 0 100.247 67.834 A 8.577 8.577 0 0 0 100.293 67.773 Z M 221.045 79.541 L 207.666 79.932 A 44.759 44.759 0 0 1 206.041 79.904 Q 205.298 79.877 204.634 79.823 A 26.058 26.058 0 0 1 204.199 79.785 A 22.066 22.066 0 0 0 202.854 84.43 A 18.663 18.663 0 0 0 202.588 87.549 A 7.533 7.533 0 0 0 202.85 89.606 A 5.026 5.026 0 0 0 205.566 92.847 A 12.181 12.181 0 0 0 208.096 93.754 Q 209.401 94.077 210.959 94.221 A 29.062 29.062 0 0 0 213.623 94.336 A 68.567 68.567 0 0 0 216.436 94.282 Q 219.527 94.155 221.484 93.726 A 21.363 21.363 0 0 0 223.676 93.128 Q 224.766 92.764 225.676 92.305 A 11.991 11.991 0 0 0 226.172 92.041 A 9.777 9.777 0 0 0 228.098 90.587 A 5.995 5.995 0 0 0 229.98 86.182 A 11.701 11.701 0 0 0 229.894 84.699 Q 229.648 82.786 228.711 81.885 A 7.153 7.153 0 0 0 226.179 80.324 Q 225.071 79.908 223.692 79.713 A 18.957 18.957 0 0 0 221.045 79.541 Z M 225.391 46.973 Q 225.928 45.02 225.928 42.773 A 13.476 13.476 0 0 0 225.63 39.899 A 11.749 11.749 0 0 0 225.269 38.599 A 8.506 8.506 0 0 0 223.502 35.575 A 8.271 8.271 0 0 0 223.242 35.303 Q 220.634 32.695 215.976 32.408 A 19.245 19.245 0 0 0 214.795 32.373 A 19.862 19.862 0 0 0 210.669 32.769 Q 208.326 33.268 206.626 34.394 A 9.096 9.096 0 0 0 203.32 38.33 A 10.586 10.586 0 0 0 202.654 40.548 Q 202.45 41.62 202.405 42.852 A 19.355 19.355 0 0 0 202.393 43.555 Q 202.393 52.65 212.633 53.481 A 26.769 26.769 0 0 0 214.795 53.564 A 17.292 17.292 0 0 0 218.607 53.178 Q 223.948 51.968 225.391 46.973 Z M 339.49 70.282 A 43.198 43.198 0 0 0 341.26 69.482 A 258.85 258.85 0 0 0 341.339 66.095 A 341.808 341.808 0 0 0 341.382 62.378 A 397.589 397.589 0 0 1 341.504 54.688 A 118.362 118.362 0 0 0 335.617 54.823 Q 330.286 55.089 326.838 55.883 A 17.741 17.741 0 0 0 323.682 56.885 A 8.894 8.894 0 0 0 321.261 58.434 Q 319.278 60.259 319.108 63.165 A 9.494 9.494 0 0 0 319.092 63.721 A 11.748 11.748 0 0 0 319.622 67.412 Q 321.373 72.705 328.906 72.705 Q 333.776 72.705 339.49 70.282 Z M 585.498 47.754 A 5.096 5.096 0 0 0 586.468 46.621 A 4.21 4.21 0 0 0 587.036 45.142 A 15.599 15.599 0 0 0 587.219 43.749 Q 587.283 43.019 587.299 42.191 A 28.887 28.887 0 0 0 587.305 41.626 A 19.269 19.269 0 0 0 587.235 39.942 Q 587.157 39.06 586.994 38.287 A 11.449 11.449 0 0 0 586.938 38.037 A 7.42 7.42 0 0 0 586.364 36.418 A 6.227 6.227 0 0 0 585.693 35.352 A 5.829 5.829 0 0 0 583.044 33.54 Q 582.057 33.191 580.836 33.071 A 13.742 13.742 0 0 0 579.492 33.008 Q 571.838 33.008 568.875 36.579 A 7.296 7.296 0 0 0 568.408 37.207 A 12.162 12.162 0 0 0 567.049 40.026 Q 566.009 43.019 565.642 47.639 A 62.727 62.727 0 0 0 565.479 50.684 Q 582.4 50.441 585.455 47.792 A 2.933 2.933 0 0 0 585.498 47.754 Z" vector-effect="non-scaling-stroke"/></g></svg>
