<svg width="319" height="87" viewBox="0 0 319 87" fill="none" xmlns="http://www.w3.org/2000/svg">
<path d="M6 35H316" stroke="#6366F1" stroke-width="3" stroke-linecap="round"/>
<path d="M6.38 68.3852C5.64667 68.3852 5.09667 68.1836 4.73 67.7802C4.36333 67.3769 4.18 66.8086 4.18 66.0752V43.1402C4.18 42.4069 4.36333 41.8569 4.73 41.4902C5.09667 41.0869 5.62833 40.8852 6.325 40.8852C7.02167 40.8852 7.55333 41.0869 7.92 41.4902C8.32333 41.8569 8.525 42.4069 8.525 43.1402V47.8702L7.92 47.2102C8.69 45.0836 9.93667 43.4886 11.66 42.4252C13.42 41.3252 15.4367 40.7752 17.71 40.7752C19.8367 40.7752 21.5967 41.1602 22.99 41.9302C24.42 42.7002 25.4833 43.8736 26.18 45.4502C26.8767 46.9902 27.225 48.9519 27.225 51.3352V66.0752C27.225 66.8086 27.0233 67.3769 26.62 67.7802C26.2533 68.1836 25.7217 68.3852 25.025 68.3852C24.2917 68.3852 23.7233 68.1836 23.32 67.7802C22.9533 67.3769 22.77 66.8086 22.77 66.0752V51.6102C22.77 49.1169 22.275 47.3019 21.285 46.1652C20.3317 44.9919 18.7917 44.4052 16.665 44.4052C14.2083 44.4052 12.2467 45.1752 10.78 46.7152C9.35 48.2186 8.635 50.2352 8.635 52.7652V66.0752C8.635 67.6152 7.88333 68.3852 6.38 68.3852ZM46.5498 68.4952C43.9464 68.4952 41.6914 67.9269 39.7848 66.7902C37.8781 65.6536 36.3931 64.0586 35.3298 62.0052C34.3031 59.9152 33.7898 57.4586 33.7898 54.6352C33.7898 52.5086 34.0831 50.6019 34.6698 48.9152C35.2564 47.1919 36.1181 45.7252 37.2548 44.5152C38.3914 43.3052 39.7298 42.3886 41.2698 41.7652C42.8464 41.1052 44.6064 40.7752 46.5498 40.7752C49.1531 40.7752 51.4081 41.3436 53.3148 42.4802C55.2214 43.6169 56.6881 45.2302 57.7148 47.3202C58.7781 49.3736 59.3098 51.8119 59.3098 54.6352C59.3098 56.7619 59.0164 58.6686 58.4298 60.3552C57.8431 62.0419 56.9814 63.5086 55.8448 64.7552C54.7081 65.9652 53.3514 66.9002 51.7748 67.5602C50.2348 68.1836 48.4931 68.4952 46.5498 68.4952ZM46.5498 64.9202C48.1998 64.9202 49.6481 64.5169 50.8948 63.7102C52.1414 62.9036 53.0948 61.7302 53.7548 60.1902C54.4514 58.6502 54.7998 56.7986 54.7998 54.6352C54.7998 51.2986 54.0481 48.7502 52.5448 46.9902C51.0781 45.2302 49.0798 44.3502 46.5498 44.3502C44.8631 44.3502 43.3964 44.7536 42.1498 45.5602C40.9398 46.3302 39.9864 47.4852 39.2898 49.0252C38.6298 50.5286 38.2998 52.3986 38.2998 54.6352C38.2998 57.9352 39.0514 60.4836 40.5548 62.2802C42.0581 64.0402 44.0564 64.9202 46.5498 64.9202ZM68.2013 68.3852C67.468 68.3852 66.918 68.1836 66.5513 67.7802C66.1846 67.3769 66.0013 66.8086 66.0013 66.0752V43.1402C66.0013 42.4069 66.1846 41.8569 66.5513 41.4902C66.918 41.0869 67.4496 40.8852 68.1463 40.8852C68.843 40.8852 69.3746 41.0869 69.7413 41.4902C70.1446 41.8569 70.3463 42.4069 70.3463 43.1402V47.8702L69.7413 47.2102C70.5113 45.0836 71.758 43.4886 73.4813 42.4252C75.2413 41.3252 77.258 40.7752 79.5313 40.7752C81.658 40.7752 83.418 41.1602 84.8113 41.9302C86.2413 42.7002 87.3046 43.8736 88.0013 45.4502C88.698 46.9902 89.0463 48.9519 89.0463 51.3352V66.0752C89.0463 66.8086 88.8446 67.3769 88.4413 67.7802C88.0746 68.1836 87.543 68.3852 86.8463 68.3852C86.113 68.3852 85.5446 68.1836 85.1413 67.7802C84.7746 67.3769 84.5913 66.8086 84.5913 66.0752V51.6102C84.5913 49.1169 84.0963 47.3019 83.1063 46.1652C82.153 44.9919 80.613 44.4052 78.4863 44.4052C76.0296 44.4052 74.068 45.1752 72.6013 46.7152C71.1713 48.2186 70.4563 50.2352 70.4563 52.7652V66.0752C70.4563 67.6152 69.7046 68.3852 68.2013 68.3852ZM109.086 78.3952C107.143 78.3952 105.236 78.1569 103.366 77.6802C101.533 77.2402 99.8644 76.5252 98.3611 75.5352C97.9211 75.2786 97.6277 74.9669 97.4811 74.6002C97.3711 74.2336 97.3527 73.8669 97.4261 73.5002C97.4994 73.1702 97.6644 72.8586 97.9211 72.5652C98.1777 72.3086 98.4711 72.1436 98.8011 72.0702C99.1677 71.9969 99.5344 72.0519 99.9011 72.2352C101.514 73.2252 103.054 73.9036 104.521 74.2702C105.988 74.6369 107.436 74.8202 108.866 74.8202C111.469 74.8202 113.431 74.1236 114.751 72.7302C116.108 71.3369 116.786 69.3202 116.786 66.6802V60.4652H117.336C116.786 62.5919 115.613 64.2786 113.816 65.5252C112.056 66.7719 109.984 67.3952 107.601 67.3952C105.144 67.3952 103.018 66.8452 101.221 65.7452C99.4244 64.6086 98.0311 63.0319 97.0411 61.0152C96.0877 58.9986 95.6111 56.6702 95.6111 54.0302C95.6111 52.0502 95.8861 50.2536 96.4361 48.6402C96.9861 46.9902 97.7744 45.5969 98.8011 44.4602C99.8644 43.2869 101.129 42.3886 102.596 41.7652C104.099 41.1052 105.768 40.7752 107.601 40.7752C110.021 40.7752 112.111 41.3986 113.871 42.6452C115.631 43.8552 116.768 45.5052 117.281 47.5952L116.731 48.2552V43.1402C116.731 42.4069 116.914 41.8569 117.281 41.4902C117.684 41.0869 118.234 40.8852 118.931 40.8852C119.664 40.8852 120.214 41.0869 120.581 41.4902C120.948 41.8569 121.131 42.4069 121.131 43.1402V66.0752C121.131 70.1452 120.104 73.2069 118.051 75.2602C116.034 77.3502 113.046 78.3952 109.086 78.3952ZM108.426 63.7652C110.149 63.7652 111.634 63.3802 112.881 62.6102C114.128 61.8036 115.081 60.6669 115.741 59.2002C116.438 57.7336 116.786 56.0102 116.786 54.0302C116.786 51.0602 116.034 48.7136 114.531 46.9902C113.028 45.2302 110.993 44.3502 108.426 44.3502C106.739 44.3502 105.273 44.7536 104.026 45.5602C102.779 46.3302 101.808 47.4486 101.111 48.9152C100.451 50.3452 100.121 52.0502 100.121 54.0302C100.121 57.0002 100.873 59.3652 102.376 61.1252C103.879 62.8852 105.896 63.7652 108.426 63.7652ZM139.663 68.4952C137.279 68.4952 135.189 67.9269 133.393 66.7902C131.633 65.6536 130.258 64.0586 129.268 62.0052C128.314 59.9152 127.838 57.4586 127.838 54.6352C127.838 51.7752 128.314 49.3186 129.268 47.2652C130.258 45.1752 131.633 43.5802 133.393 42.4802C135.189 41.3436 137.279 40.7752 139.663 40.7752C142.083 40.7752 144.154 41.3802 145.878 42.5902C147.601 43.8002 148.756 45.4319 149.343 47.4852H148.738V31.0952C148.738 30.3619 148.921 29.8119 149.288 29.4452C149.691 29.0419 150.259 28.8402 150.993 28.8402C151.689 28.8402 152.221 29.0419 152.588 29.4452C152.991 29.8119 153.193 30.3619 153.193 31.0952V66.0752C153.193 66.8086 153.009 67.3769 152.643 67.7802C152.276 68.1836 151.726 68.3852 150.993 68.3852C150.296 68.3852 149.746 68.1836 149.343 67.7802C148.976 67.3769 148.793 66.8086 148.793 66.0752V60.8502L149.398 61.6202C148.811 63.7102 147.638 65.3786 145.878 66.6252C144.154 67.8719 142.083 68.4952 139.663 68.4952ZM140.598 64.9202C142.248 64.9202 143.696 64.5169 144.943 63.7102C146.189 62.9036 147.143 61.7302 147.803 60.1902C148.499 58.6502 148.848 56.7986 148.848 54.6352C148.848 51.2986 148.096 48.7502 146.593 46.9902C145.126 45.2302 143.128 44.3502 140.598 44.3502C138.911 44.3502 137.444 44.7536 136.198 45.5602C134.988 46.3302 134.034 47.4852 133.338 49.0252C132.678 50.5286 132.348 52.3986 132.348 54.6352C132.348 57.9352 133.099 60.4836 134.603 62.2802C136.106 64.0402 138.104 64.9202 140.598 64.9202ZM169.968 68.4952C168.135 68.4952 166.485 68.1469 165.018 67.4502C163.588 66.7169 162.451 65.7269 161.608 64.4802C160.765 63.2336 160.343 61.8402 160.343 60.3002C160.343 58.3202 160.838 56.7619 161.828 55.6252C162.855 54.4886 164.523 53.6819 166.833 53.2052C169.18 52.7286 172.37 52.4902 176.403 52.4902H178.878V55.4052H176.458C173.488 55.4052 171.141 55.5519 169.418 55.8452C167.731 56.1019 166.54 56.5602 165.843 57.2202C165.183 57.8802 164.853 58.8152 164.853 60.0252C164.853 61.5286 165.366 62.7569 166.393 63.7102C167.456 64.6636 168.886 65.1402 170.683 65.1402C172.15 65.1402 173.433 64.7919 174.533 64.0952C175.67 63.3986 176.55 62.4452 177.173 61.2352C177.833 60.0252 178.163 58.6319 178.163 57.0552V50.7852C178.163 48.5119 177.705 46.8802 176.788 45.8902C175.871 44.8636 174.368 44.3502 172.278 44.3502C170.995 44.3502 169.711 44.5152 168.428 44.8452C167.145 45.1752 165.788 45.7069 164.358 46.4402C163.845 46.6969 163.405 46.7886 163.038 46.7152C162.671 46.6052 162.378 46.4036 162.158 46.1102C161.938 45.8169 161.81 45.4869 161.773 45.1202C161.736 44.7169 161.81 44.3319 161.993 43.9652C162.213 43.5986 162.543 43.3052 162.983 43.0852C164.596 42.2786 166.191 41.6919 167.768 41.3252C169.345 40.9586 170.848 40.7752 172.278 40.7752C174.588 40.7752 176.495 41.1602 177.998 41.9302C179.501 42.6636 180.62 43.8002 181.353 45.3402C182.086 46.8436 182.453 48.7869 182.453 51.1702V66.0752C182.453 66.8086 182.27 67.3769 181.903 67.7802C181.573 68.1836 181.078 68.3852 180.418 68.3852C179.721 68.3852 179.19 68.1836 178.823 67.7802C178.456 67.3769 178.273 66.8086 178.273 66.0752V61.7852H178.768C178.475 63.1786 177.906 64.3702 177.063 65.3602C176.256 66.3502 175.248 67.1202 174.038 67.6702C172.828 68.2202 171.471 68.4952 169.968 68.4952ZM192.918 68.3852C192.185 68.3852 191.635 68.1836 191.268 67.7802C190.901 67.3769 190.718 66.8086 190.718 66.0752V43.1402C190.718 42.4069 190.901 41.8569 191.268 41.4902C191.635 41.0869 192.166 40.8852 192.863 40.8852C193.56 40.8852 194.091 41.0869 194.458 41.4902C194.861 41.8569 195.063 42.4069 195.063 43.1402V47.8702L194.458 47.2102C195.228 45.0836 196.475 43.4886 198.198 42.4252C199.958 41.3252 201.975 40.7752 204.248 40.7752C206.375 40.7752 208.135 41.1602 209.528 41.9302C210.958 42.7002 212.021 43.8736 212.718 45.4502C213.415 46.9902 213.763 48.9519 213.763 51.3352V66.0752C213.763 66.8086 213.561 67.3769 213.158 67.7802C212.791 68.1836 212.26 68.3852 211.563 68.3852C210.83 68.3852 210.261 68.1836 209.858 67.7802C209.491 67.3769 209.308 66.8086 209.308 66.0752V51.6102C209.308 49.1169 208.813 47.3019 207.823 46.1652C206.87 44.9919 205.33 44.4052 203.203 44.4052C200.746 44.4052 198.785 45.1752 197.318 46.7152C195.888 48.2186 195.173 50.2352 195.173 52.7652V66.0752C195.173 67.6152 194.421 68.3852 192.918 68.3852ZM243.432 68.4952C241.049 68.4952 238.959 67.9269 237.162 66.7902C235.402 65.6536 234.027 64.0586 233.037 62.0052C232.084 59.9152 231.607 57.4586 231.607 54.6352C231.607 51.7752 232.084 49.3186 233.037 47.2652C234.027 45.1752 235.402 43.5802 237.162 42.4802C238.959 41.3436 241.049 40.7752 243.432 40.7752C245.852 40.7752 247.924 41.3802 249.647 42.5902C251.37 43.8002 252.525 45.4319 253.112 47.4852H252.507V31.0952C252.507 30.3619 252.69 29.8119 253.057 29.4452C253.46 29.0419 254.029 28.8402 254.762 28.8402C255.459 28.8402 255.99 29.0419 256.357 29.4452C256.76 29.8119 256.962 30.3619 256.962 31.0952V66.0752C256.962 66.8086 256.779 67.3769 256.412 67.7802C256.045 68.1836 255.495 68.3852 254.762 68.3852C254.065 68.3852 253.515 68.1836 253.112 67.7802C252.745 67.3769 252.562 66.8086 252.562 66.0752V60.8502L253.167 61.6202C252.58 63.7102 251.407 65.3786 249.647 66.6252C247.924 67.8719 245.852 68.4952 243.432 68.4952ZM244.367 64.9202C246.017 64.9202 247.465 64.5169 248.712 63.7102C249.959 62.9036 250.912 61.7302 251.572 60.1902C252.269 58.6502 252.617 56.7986 252.617 54.6352C252.617 51.2986 251.865 48.7502 250.362 46.9902C248.895 45.2302 246.897 44.3502 244.367 44.3502C242.68 44.3502 241.214 44.7536 239.967 45.5602C238.757 46.3302 237.804 47.4852 237.107 49.0252C236.447 50.5286 236.117 52.3986 236.117 54.6352C236.117 57.9352 236.869 60.4836 238.372 62.2802C239.875 64.0402 241.874 64.9202 244.367 64.9202ZM277.368 68.4952C274.544 68.4952 272.106 67.9452 270.053 66.8452C268.036 65.7086 266.459 64.1136 265.323 62.0602C264.223 60.0069 263.673 57.5502 263.673 54.6902C263.673 51.9036 264.223 49.4836 265.323 47.4302C266.423 45.3402 267.926 43.7086 269.833 42.5352C271.776 41.3619 274.013 40.7752 276.543 40.7752C278.339 40.7752 279.953 41.0869 281.383 41.7102C282.813 42.2969 284.023 43.1586 285.013 44.2952C286.039 45.4319 286.809 46.8069 287.323 48.4202C287.873 50.0336 288.148 51.8486 288.148 53.8652C288.148 54.4519 287.983 54.8919 287.653 55.1852C287.323 55.4419 286.846 55.5702 286.223 55.5702H267.083V52.6552H285.178L284.298 53.3702C284.298 51.3902 284.004 49.7219 283.418 48.3652C282.831 46.9719 281.969 45.9086 280.833 45.1752C279.733 44.4419 278.339 44.0752 276.653 44.0752C274.783 44.0752 273.188 44.5152 271.868 45.3952C270.584 46.2386 269.613 47.4302 268.953 48.9702C268.293 50.4736 267.963 52.2336 267.963 54.2502V54.5802C267.963 57.9536 268.769 60.5202 270.383 62.2802C272.033 64.0402 274.361 64.9202 277.368 64.9202C278.614 64.9202 279.843 64.7552 281.053 64.4252C282.299 64.0952 283.509 63.5452 284.683 62.7752C285.196 62.4452 285.654 62.2986 286.058 62.3352C286.498 62.3352 286.846 62.4636 287.103 62.7202C287.359 62.9402 287.524 63.2336 287.598 63.6002C287.708 63.9302 287.671 64.2969 287.488 64.7002C287.341 65.1036 287.029 65.4519 286.553 65.7452C285.343 66.6252 283.913 67.3036 282.263 67.7802C280.613 68.2569 278.981 68.4952 277.368 68.4952Z" fill="#090A1A"/>
<path d="M304.228 68.3852C303.604 68.3852 303.054 68.2202 302.578 67.8902C302.101 67.5236 301.698 66.9736 301.368 66.2402L291.853 44.0202C291.596 43.4702 291.504 42.9569 291.578 42.4802C291.651 42.0036 291.871 41.6186 292.238 41.3252C292.604 41.0319 293.118 40.8852 293.778 40.8852C294.364 40.8852 294.823 41.0136 295.153 41.2702C295.483 41.5269 295.776 41.9852 296.033 42.6452L305.053 64.7002H303.568L312.753 42.6452C313.009 41.9852 313.303 41.5269 313.633 41.2702C313.963 41.0136 314.439 40.8852 315.063 40.8852C315.649 40.8852 316.089 41.0319 316.383 41.3252C316.713 41.6186 316.896 42.0036 316.933 42.4802C317.006 42.9202 316.933 43.4152 316.713 43.9652L307.088 66.2402C306.831 66.9736 306.446 67.5236 305.933 67.8902C305.456 68.2202 304.888 68.3852 304.228 68.3852Z" fill="#6366F1"/>
<path d="M223.325 57.22C222.408 57.22 221.675 56.945 221.125 56.395C220.575 55.8083 220.3 55.075 220.3 54.195C220.3 53.315 220.575 52.6 221.125 52.05C221.675 51.4633 222.408 51.17 223.325 51.17C224.242 51.17 224.957 51.4633 225.47 52.05C226.02 52.6 226.295 53.315 226.295 54.195C226.295 55.075 226.02 55.8083 225.47 56.395C224.957 56.945 224.242 57.22 223.325 57.22Z" fill="#7B7CA2" fill-opacity="0.68"/>
<path d="M304.365 0.615001C304.988 0.615001 305.538 0.780001 306.015 1.11C306.492 1.47667 306.895 2.02667 307.225 2.76L316.74 24.98C316.997 25.53 317.088 26.0433 317.015 26.52C316.942 26.9967 316.722 27.3817 316.355 27.675C315.988 27.9683 315.475 28.115 314.815 28.115C314.228 28.115 313.77 27.9867 313.44 27.73C313.11 27.4733 312.817 27.015 312.56 26.355L303.54 4.3L305.025 4.3L295.84 26.355C295.583 27.015 295.29 27.4733 294.96 27.73C294.63 27.9867 294.153 28.115 293.53 28.115C292.943 28.115 292.503 27.9683 292.21 27.675C291.88 27.3817 291.697 26.9967 291.66 26.52C291.587 26.08 291.66 25.585 291.88 25.035L301.505 2.76C301.762 2.02667 302.147 1.47667 302.66 1.11C303.137 0.780001 303.705 0.615001 304.365 0.615001Z" fill="#6366F1"/>
</svg>
